<?xml version="1.0" standalone="no"?>
<!DOCTYPE svg PUBLIC "-//W3C//DTD SVG 1.1//EN" "http://www.w3.org/Graphics/SVG/1.1/DTD/svg11.dtd" >
<svg xmlns="http://www.w3.org/2000/svg">
<metadata>
This is a custom SVG webfont generated by Font Squirrel.
Copyright   : Converted by Andrey V Panov from TeX fonts
</metadata>
<defs>
<font id="CMUBrightSemiBold" horiz-adv-x="1075" >
<font-face units-per-em="2048" ascent="1638" descent="-410" />
<missing-glyph horiz-adv-x="681" />
<glyph unicode=" "  horiz-adv-x="681" />
<glyph unicode="&#x09;" horiz-adv-x="681" />
<glyph unicode="&#xa0;" horiz-adv-x="681" />
<glyph unicode="!" horiz-adv-x="665" d="M211 0v240h240v-240h-240zM211 1423h240l-25 -999h-190z" />
<glyph unicode="&#x22;" d="M258 1423h197l-21 -606h-155l-17 463zM618 1423h199l-22 -606h-156z" />
<glyph unicode="#" horiz-adv-x="1792" d="M119 324q0 76 96 75h330l2 2l78 281h-400q-51 0 -69 12q-37 23 -37 66q0 76 100 76h451l143 501q14 84 82 84q31 0 53.5 -22.5t22.5 -50.5q0 -10 -3 -25.5t-15 -54.5l-24 -84l-41 -144l-59 -204h299l144 501l2 9q2 8 4 14t7 15t11.5 16.5t14.5 14.5t19 11t26 4 q35 0 55.5 -24.5t20.5 -50.5q0 -8 -142 -510h277q39 0 45 -2q20 -6 39.5 -26t19.5 -48q0 -78 -96 -78h-330v-2l-80 -281h377q72 0 92 -10q37 -23 37 -67q0 -76 -100 -76h-449l-145 -502q-20 -84 -82 -84q-31 0 -53.5 22.5t-22.5 51.5q0 16 142 512h-299l-144 -502 q-20 -84 -82 -84q-31 0 -54.5 22.5t-23.5 51.5q0 10 142 512h-277q-31 0 -45 2q-23 6 -41 27.5t-18 48.5zM707 399h299v2l77 281h-299v-2z" />
<glyph unicode="$" d="M94 125l31 178q57 -45 92 -67.5t98.5 -47t143.5 -36.5v495q-178 43 -260 155.5t-82 237.5q0 141 96 254t246 140v102h153v-100l35 -2q37 -2 110.5 -28t160.5 -81l-31 -170q-80 57 -135.5 82t-139.5 35v-441q172 -41 256 -161.5t84 -257.5q0 -156 -95 -272.5t-245 -149.5 v-103h-153v101q-205 24 -365 137zM299 1067q0 -143 160 -199v398q-80 -27 -120 -81.5t-40 -117.5zM612 160q86 33 123 97.5t37 127.5q0 145 -133 215l-25 10l-2 -67v-383z" />
<glyph unicode="%" horiz-adv-x="1820" d="M119 1124q0 172 90 292t217 120q121 0 213 -116.5t92 -297.5q0 -168 -89 -289.5t-216 -121.5q-121 0 -214 116.5t-93 296.5zM305 1110q0 -51 4 -87t14.5 -76t36 -60.5t64.5 -20.5q55 0 91 76t36 180q0 115 -38 186.5t-91 71.5h-4q-70 -6 -91.5 -69.5t-21.5 -163.5v-37z M379 -63q0 12 33 71l929 1485q27 41 56 41q18 0 33.5 -13.5t15.5 -33.5q0 -10 -5 -22.5t-13.5 -25t-8.5 -14.5l-927 -1480q-2 -2 -9.5 -14.5t-11.5 -17.5t-11 -12t-14.5 -10.5t-17.5 -3.5q-20 0 -34.5 15t-14.5 35zM1090 299q0 168 89 290t216 122q131 0 218 -123t87 -291 t-88 -289t-215 -121q-121 0 -214 116t-93 296zM1276 285q0 -51 4 -87t14.5 -76t36 -60.5t64.5 -20.5q55 0 91 76t36 182q0 115 -39 185.5t-90 70.5h-4q-39 -2 -64 -24.5t-34 -62.5t-12 -70.5t-3 -75.5v-37z" />
<glyph unicode="&#x26;" horiz-adv-x="1603" d="M88 317q0 143 113 248q18 16 194 148q-59 170 -59 309q0 184 87 309t226 125q135 0 219 -103.5t84 -230.5q0 -195 -340 -436q27 -49 60 -97t70.5 -96.5t62.5 -76.5l63 -72q39 -43 45 -49q31 25 65 59.5t91 106t110.5 186.5t90.5 250l162 -43q-102 -395 -390 -664 q121 -61 215 -61q45 0 88.5 7t69 15.5l46 15.5t22.5 7v-172q-121 -37 -228 -37q-188 0 -356 117q-229 -117 -416 -117q-170 0 -282.5 102.5t-112.5 249.5zM287 332q0 -80 53 -141.5t145 -61.5q127 0 275 64q-205 211 -297 376h-2q-6 -4 -41 -30l-44 -34q-9 -7 -33 -30.5 t-32 -41t-16 -44t-8 -57.5zM498 1110q0 -102 51 -281q225 170 225 295q0 74 -34.5 126.5t-90 52.5t-103.5 -48.5t-48 -144.5z" />
<glyph unicode="'" horiz-adv-x="598" d="M199 1423h198l-22 -606h-156z" />
<glyph unicode="(" horiz-adv-x="835" d="M160 541q0 649 399 995h156q-53 -53 -92 -100t-93.5 -138.5t-88 -189.5t-59.5 -246.5t-26 -320.5q0 -182 30 -340t65.5 -256.5t95 -190.5t90.5 -127t78 -82h-156q-399 341 -399 996z" />
<glyph unicode=")" horiz-adv-x="835" d="M119 -455q68 68 117 134.5t111.5 185.5t96 292t33.5 384q0 170 -25.5 321.5t-62.5 250.5t-84 183t-84 128t-68 77l-34 35h153q401 -338 402 -995q0 -653 -402 -996h-153z" />
<glyph unicode="*" d="M154 920q0 45 59 73l238 103q-248 106 -263 116q-35 20 -34 60q0 33 24.5 58.5t54.5 25.5q8 0 15.5 -1t17.5 -7.5l19.5 -12.5t28.5 -22l40 -33l59 -46l79 -60q-35 270 -35 292q0 33 24.5 51.5t53.5 18.5q27 0 52 -17.5t25 -56.5q0 -23 -32 -288q213 168 229 176 q12 6 25 6q37 0 59 -25.5t22 -58.5q0 -51 -57 -74l-237 -102l114 -49q127 -53 153.5 -72t26.5 -57q0 -33 -23.5 -58.5t-55.5 -25.5q-10 0 -18.5 3t-17.5 8t-28 20l-40 32l-63 50l-89 69q35 -285 34 -291q0 -25 -22.5 -47.5t-56.5 -22.5q-29 0 -53.5 20.5t-24.5 53.5 q0 8 35 287l-62 -48l-50 -39l-39 -31l-30 -24l-22 -17q-12 -9 -17.5 -12t-12.5 -6t-11 -4t-10 -1q-37 0 -60.5 25.5t-23.5 60.5z" />
<glyph unicode="+" horiz-adv-x="1314" d="M119 541q0 27 19.5 51t64.5 26h377v375q2 45 26.5 64.5t50.5 19.5q25 0 49.5 -19.5t26.5 -64.5v-375h377q45 -2 64.5 -27.5t19.5 -50t-19.5 -50t-64.5 -27.5h-377v-375q-2 -45 -26.5 -64.5t-49.5 -19.5q-27 0 -51 19.5t-26 64.5v375h-377q-47 2 -65.5 27.5t-18.5 50.5z " />
<glyph unicode="," horiz-adv-x="598" d="M176 0v240h242v-205q-2 -25 -7 -42.5t-15 -33.5l-38 -70l-61 -116h-121l74 227h-74z" />
<glyph unicode="-" horiz-adv-x="716" d="M23 408v153h573v-153h-573z" />
<glyph unicode="." horiz-adv-x="598" d="M178 0v240h240v-240h-240z" />
<glyph unicode="/" d="M119 -379q0 12 16 62l653 1759l16 36q3 7 14 26.5t24.5 25.5t34.5 6q31 0 54 -22.5t23 -53.5q0 -14 -14 -53l-653 -1763l-6 -17q-6 -16 -8.5 -20t-8.5 -17.5t-11 -18.5t-13.5 -12.5t-19.5 -10.5t-23 -3q-31 0 -54.5 21.5t-23.5 54.5z" />
<glyph unicode="0" d="M82 659q0 403 139 572q113 145 316 145q178 0 292 -121q53 -55 89 -139q68 -154 71 -442q0 -47 -2 -72q-4 -223 -65 -373q-29 -61 -68 -116q-119 -147 -319 -148q-178 0 -297 125q-45 47 -84 129q-68 153 -72 440zM279 674q0 -365 77 -465q68 -88 179 -88q70 0 132 42 t91 136q18 59 26 162q6 72 7 221v47v65q0 19 -2.5 67t-6.5 79t-11 70t-18.5 68.5t-27.5 49.5q-66 94 -190 95h-15q-121 -10 -178 -99q-27 -43 -41 -106q-22 -104 -22 -344z" />
<glyph unicode="1" d="M182 1087v156q279 0 430 133h50v-1222h264v-154h-731v154h268v976q-125 -43 -281 -43z" />
<glyph unicode="2" d="M88 1079q104 297 418 297q209 0 335 -130t126 -312q0 -31 -6.5 -60.5t-12.5 -54t-24.5 -53.5t-28.5 -46.5t-38 -45.5l-39 -41q-11 -12 -47 -42t-46 -39t-51 -41l-49 -38q-57 -45 -344 -301h686v-172h-861v164q274 256 398 362q129 111 193.5 202t64.5 202 q0 121 -80 202.5t-205 81.5q-119 0 -181.5 -74.5t-94.5 -199.5z" />
<glyph unicode="3" d="M88 145l29 156q186 -176 403 -176q117 0 183.5 68.5t66.5 193.5q0 104 -59.5 182t-198.5 78h-156v156q164 12 207 28q63 27 110.5 86.5t47.5 139.5q0 78 -50 122t-143 44q-188 0 -315 -181l-94 136q164 199 409 198q160 0 278 -92t118 -229q0 -211 -217 -332 q135 -47 205.5 -140.5t70.5 -201.5q0 -158 -127 -287t-334 -129q-244 0 -434 180z" />
<glyph unicode="4" d="M59 319v138q0 27 25 65l498 838h231v-877h201v-164h-201v-319h-195v319h-559zM254 483h373v711q-6 -25 -15.5 -52.5t-25 -62.5t-29.5 -63l-39 -76l-42 -77l-50 -88l-52 -90l-60 -99z" />
<glyph unicode="5" d="M72 166l90 143q119 -184 327 -184q84 0 139.5 25.5t81 73.5t35 94.5t9.5 105.5q0 182 -76 246q-51 39 -123 39q-152 0 -221 -152h-172v784h733v-161h-545v-383q100 68 207 67q168 0 289 -131t121 -315q0 -186 -138.5 -319.5t-339.5 -133.5q-249 0 -417 201z" />
<glyph unicode="6" d="M88 659q0 332 176 524.5t398 192.5q104 0 219 -39v-157q-117 43 -217 43q-104 0 -181 -45t-116 -120t-56.5 -149.5t-17.5 -154.5v-17q37 61 89 106.5t94 65t93.5 30.5t64.5 11h28q47 -4 73.5 -10t65.5 -33.5t76 -81.5q106 -152 106 -360q0 -115 -32.5 -202t-112.5 -169 q-125 -129 -297 -129q-59 0 -116.5 16.5t-120 63.5t-108.5 122t-77 201.5t-31 290.5zM295 459q4 -70 13 -120t34 -104.5t75 -83t124 -28.5q68 0 114.5 21.5t70.5 50t37 78t15 82t2 83.5v58q0 55 -4 92t-18.5 85t-50 77.5t-91.5 40.5l-67 6l-37 -4q-100 -16 -157.5 -102.5 t-57.5 -196.5v-35h-2z" />
<glyph unicode="7" d="M88 1171v170h895v-163q-221 -240 -342 -552.5t-123 -641.5h-205q0 322 119 602t313 485q43 45 105 100h-762z" />
<glyph unicode="8" d="M88 383q0 109 70.5 200t210.5 142q-94 29 -172 103.5t-78 185.5q0 143 118.5 252.5t297.5 109.5q176 0 297.5 -106.5t121.5 -255.5q0 -170 -194 -264l-58 -25q106 -33 193.5 -123t87.5 -219q0 -166 -129 -292t-317 -126q-184 0 -316.5 123t-132.5 295zM289 385 q0 -262 246 -262q141 0 194 70.5t53 191.5q0 262 -245 262q-248 0 -248 -262zM303 1014q0 -211 232 -211q236 0 235 209q0 119 -60.5 165t-172.5 46q-117 0 -175.5 -48t-58.5 -161z" />
<glyph unicode="9" d="M88 879q0 115 33 198.5t112 167.5q135 131 310 131q61 0 117.5 -16.5t117 -64.5t104.5 -122.5t72.5 -201.5t28.5 -291q0 -303 -157.5 -509t-385.5 -206q-147 0 -286 94l79 140l21 -15q18 -12 25.5 -16l29 -15.5t39 -16.5t43 -9t51.5 -4q96 0 166 44t106 117.5t51 147.5 t15 152q0 2 -1 10t-1 10q-27 -45 -61.5 -82t-69.5 -58.5t-68.5 -35.5t-63.5 -21.5t-52.5 -10.5t-36.5 -3l-16 -2q-88 8 -134 41q-43 31 -83 88q-105 154 -105 359zM291 852q0 -47 1 -74.5t10 -71.5t25.5 -72t50.5 -51.5t83 -31.5q45 -4 63 -4q86 8 138 49q115 88 114 258 q0 20 -2 31h2q-4 61 -9 103t-20.5 90t-40 77t-66.5 48.5t-99 19.5q-72 0 -121 -23.5t-73.5 -54.5t-38 -82t-15.5 -81t-2 -79v-51z" />
<glyph unicode=":" horiz-adv-x="598" d="M178 0v240h240v-240h-240zM178 727v240h240v-240h-240z" />
<glyph unicode=";" horiz-adv-x="598" d="M176 0v240h242v-205q-2 -25 -7 -42.5t-15 -33.5l-38 -70l-61 -116h-121l74 227h-74zM176 727v240h240v-240h-240z" />
<glyph unicode="&#x3c;" horiz-adv-x="1314" d="M178 541q0 16 8.5 31.5t15.5 22.5t19 17l15 11l763 524q37 23 58 22q33 0 54.5 -23.5t21.5 -53.5q0 -39 -48 -74l-579 -400l-48 -33.5t-65 -41.5v-2l692 -478q47 -33 48 -73q0 -31 -21.5 -54.5t-54.5 -23.5q-20 0 -58 22l-763 527q-2 0 -9.5 5t-12.5 9t-12 11.5 t-12.5 14.5t-8.5 17.5t-3 22.5z" />
<glyph unicode="=" horiz-adv-x="1314" d="M119 342q0 25 17.5 47.5t47.5 28.5q16 2 49 2h861q49 -4 63 -14q35 -23 35 -64q0 -78 -96 -78h-883q-55 2 -74.5 26.5t-19.5 51.5zM119 739q0 78 102 78h875q98 0 98 -78q0 -29 -21.5 -52t-72.5 -23h-889q-37 0 -59.5 16t-27.5 30.5t-5 28.5z" />
<glyph unicode="&#x3e;" horiz-adv-x="1314" d="M178 -10q0 39 49 73l580 400q74 53 113 78v2l-66 43q-43 29 -47 32l-580 400q-49 35 -49 74q0 33 24.5 55t53.5 22q23 0 57 -22l764 -524q55 -41 56 -82q0 -12 -4.5 -22.5t-8.5 -18.5t-12 -15.5t-13 -11.5t-12 -8l-6 -4l-764 -527q-35 -23 -57 -22q-31 0 -54.5 21.5 t-23.5 56.5z" />
<glyph unicode="?" horiz-adv-x="1015" d="M119 1337q172 102 364 103q96 0 172 -20.5t120 -53.5t71.5 -76t38 -83t10.5 -81q0 -39 -8 -72.5t-19.5 -56t-31 -47t-29.5 -35t-31.5 -28t-23.5 -19.5q-178 -154 -179 -376v-68h-192v65q0 102 22.5 189.5t62.5 146t72.5 95t73.5 69.5t47 39q39 45 39 107q0 88 -46 118.5 t-163 30.5q-168 0 -311 -108zM356 0v240h240v-240h-240z" />
<glyph unicode="@" horiz-adv-x="1433" d="M119 713q0 303 212 515t503 212q186 0 307 -111q172 -158 172 -596q0 -123 -39 -221t-100.5 -154.5t-130 -85t-136.5 -28.5q-162 0 -282.5 134t-120.5 333q0 190 117.5 328.5t287.5 138.5q66 0 146 -31q-82 137 -224 137q-205 0 -364.5 -161.5t-159.5 -411.5 q0 -231 151.5 -402.5t385.5 -171.5q70 0 139.5 12.5t115.5 25.5t48 13q10 2 61 2h105q-193 -207 -477 -206q-291 0 -504 211t-213 518zM690 713q0 -133 64.5 -223.5t152.5 -90.5t153.5 89.5t65.5 222.5t-65.5 223t-151.5 90q-88 0 -153.5 -89t-65.5 -222z" />
<glyph unicode="A" horiz-adv-x="1382" d="M59 0l516 1440h232l514 -1440h-223l-123 348h-596l-123 -348h-197zM438 510h480q-225 641 -240 715q-16 -63 -58 -190l-100 -290z" />
<glyph unicode="B" horiz-adv-x="1406" d="M168 0v1423h491q207 0 357 -75q106 -55 158.5 -134t52.5 -157t-46 -140.5t-116 -97.5t-111 -50t-69 -24h-2q166 -29 284.5 -123t118.5 -229q0 -90 -56 -172t-149 -135q-143 -86 -366 -86h-547zM373 164h248q8 0 23 -1t24 -1q213 0 314 74.5t101 158.5q0 100 -111.5 184.5 t-346.5 84.5h-250l-2 -72v-428zM373 817h248q186 0 296.5 73t110.5 165q0 90 -118.5 147.5t-299.5 57.5h-235l-2 -66v-377z" />
<glyph unicode="C" horiz-adv-x="1374" d="M131 711q0 303 203 524t504 221q207 0 403 -70l-37 -212q-61 41 -100 61t-108.5 39.5t-151.5 19.5q-217 0 -357.5 -174t-140.5 -409.5t140.5 -408.5t359.5 -173q102 0 183 21.5t110.5 39t109.5 68.5l17 -178q-76 -43 -118 -62.5t-121 -36t-181 -16.5q-311 0 -513 223.5 t-202 522.5z" />
<glyph unicode="D" horiz-adv-x="1527" d="M166 0v1423h543q76 0 112 -6q246 -29 415 -233.5t169 -483.5q0 -270 -167 -468.5t-417 -227.5q-37 -4 -110 -4h-545zM375 164h237q8 0 29 -1t31 -1q150 0 257 47t162.5 129t80 171t24.5 191q0 84 -14.5 159t-51 149.5t-94 129t-151.5 88.5t-215 34h-293l-2 -58v-1038z " />
<glyph unicode="E" horiz-adv-x="1280" d="M164 0v1417h993v-162h-778v-436h719v-164h-719v-483h809v-172h-1024z" />
<glyph unicode="F" horiz-adv-x="1220" d="M164 0v1417h964v-162h-749v-464h659v-164h-659v-627h-215z" />
<glyph unicode="G" horiz-adv-x="1433" d="M131 713q0 299 202 521t509 222q221 0 428 -98l-37 -213q-2 2 -22 17l-28 23q-9 7 -34 23.5t-44.5 25.5l-51 22.5t-61 20.5t-69.5 12t-81 5q-215 0 -355.5 -174t-140.5 -409q0 -233 140.5 -407.5t357.5 -174.5q61 0 118.5 9t90 17.5t39.5 8.5v346h-256v162h452v-606 q-223 -100 -448 -101q-295 0 -502 218.5t-207 529.5z" />
<glyph unicode="H" horiz-adv-x="1449" d="M164 0v1423h215v-602h688v602h215v-1423h-215v657h-688v-657h-215z" />
<glyph unicode="I" horiz-adv-x="546" d="M164 0v1423h215v-1423h-215z" />
<glyph unicode="J" horiz-adv-x="989" d="M88 51l35 195q104 -123 260 -123q201 0 235 129q6 23 7 70v1101h211v-1106q0 -82 -22.5 -144t-59.5 -101t-87.5 -63.5t-101.5 -34t-108 -9.5q-189 0 -369 86z" />
<glyph unicode="K" horiz-adv-x="1441" d="M170 0v1423h205v-718l702 718h244l-551 -565l582 -858h-232l-487 719l-258 -264v-455h-205z" />
<glyph unicode="L" horiz-adv-x="1161" d="M164 0v1423h215v-1259h690v-164h-905z" />
<glyph unicode="M" horiz-adv-x="1808" d="M176 0v1423h283q424 -1098 444 -1192q8 47 115 330l216 564q110 282 114 298h282v-1423h-192v1225q-18 -61 -42 -128l-54 -146l-46 -124l-303 -792h-184l-297 778q-127 340 -143 412v-1225h-193z" />
<glyph unicode="N" horiz-adv-x="1449" d="M170 0v1423h299l618 -1230v1230h191v-1423h-299l-617 1231v-1231h-192z" />
<glyph unicode="O" horiz-adv-x="1603" d="M119 707q0 305 197.5 527t484.5 222q276 0 479 -216t203 -531q0 -307 -199 -525.5t-483 -218.5q-276 0 -479 214.5t-203 527.5zM334 735q0 -281 136 -444.5t331 -163.5q78 0 155.5 34t150.5 101.5t118 190t45 282.5q0 260 -135.5 411.5t-333.5 151.5q-61 0 -124 -18 t-125.5 -61t-110.5 -105.5t-77.5 -161t-29.5 -217.5z" />
<glyph unicode="P" horiz-adv-x="1347" d="M166 0v1423h518q201 0 334 -84q96 -61 152.5 -154t56.5 -198q0 -68 -30 -140.5t-88 -140t-163.5 -110.5t-240.5 -43h-324v-553h-215zM375 711h256q174 0 258 41q137 68 137 233q0 78 -29.5 132t-68.5 81t-99.5 42t-96.5 17.5t-85 2.5h-270l-2 -76v-473z" />
<glyph unicode="Q" horiz-adv-x="1603" d="M119 709q0 305 197.5 526t484.5 221q279 0 480.5 -217t201.5 -530q0 -190 -81 -355.5t-231 -269.5v-2l252 -309h-249l-175 225q-113 -33 -198 -33q-276 0 -479 214.5t-203 529.5zM328 702q2 -156 48 -273.5t119.5 -180t151.5 -93t154 -30.5q27 0 56.5 4t35.5 4l-203 266 h223l150 -186q211 164 211 494q0 266 -135 428.5t-338 162.5q-80 0 -160 -32.5t-151.5 -100t-116.5 -187.5t-45 -276z" />
<glyph unicode="R" horiz-adv-x="1374" d="M166 0v1423h502q229 0 383 -90q92 -55 146 -136t54 -171q0 -127 -101 -227.5t-253 -139.5l416 -659h-215l-391 635h-332v-635h-209zM375 788h282q141 0 228.5 26t132.5 95q33 47 33 115q0 115 -93 176q-90 59 -290 60h-291l-2 -68v-404z" />
<glyph unicode="S" horiz-adv-x="1193" d="M94 109l37 210q219 -180 457 -180q125 0 208 71t83 171q0 80 -51.5 136t-114.5 81q-31 12 -156 36.5t-220 73t-159 144.5q-61 92 -61 199q0 158 134 281.5t351 123.5q203 0 399 -98l-36 -213q-41 35 -62.5 50t-69 42t-104.5 39t-127 12q-127 0 -209 -63.5t-82 -151.5 q0 -70 49.5 -119t110.5 -71q27 -10 149.5 -39t161.5 -43q117 -45 204 -149.5t87 -250.5q0 -170 -133 -303t-354 -133q-256 1 -492 144z" />
<glyph unicode="T" horiz-adv-x="1484" d="M76 1251v162h1329v-162h-557v-1251h-215v1251h-557z" />
<glyph unicode="U" horiz-adv-x="1417" d="M164 500v923h215v-927q0 -201 92 -289q92 -78 242 -78q90 0 156.5 28.5t100.5 66.5t53 92.5t23.5 90t4.5 74.5v942h198v-925q0 -248 -162.5 -390.5t-377.5 -142.5t-380 142.5t-165 392.5z" />
<glyph unicode="V" horiz-adv-x="1382" d="M29 1423h225l262 -700q166 -451 186 -526l21 75l129 361l297 790h201l-543 -1433h-236z" />
<glyph unicode="W" horiz-adv-x="1980" d="M29 1423h207q305 -1049 327 -1226q8 94 109 454l217 772h213l209 -739l65 -244l45 -184l11 -59q8 92 104 428l225 798h187l-414 -1433h-219q-313 1090 -332 1235q-4 -47 -20.5 -117t-42 -165t-35.5 -138l-232 -815h-211z" />
<glyph unicode="X" horiz-adv-x="1382" d="M29 0l536 752v2l-506 669h254l361 -497l346 497h240l-478 -669v-2l568 -752h-254l-422 598l-404 -598h-241z" />
<glyph unicode="Y" horiz-adv-x="1382" d="M4 1423h254l444 -657l443 657h229l-557 -821q-25 -35 -24 -63v-539h-209v569z" />
<glyph unicode="Z" horiz-adv-x="1314" d="M119 0v82q0 29 26 68l766 1114h-761v159h1044v-75q0 -29 -27 -70l-766 -1114h805v-164h-1087z" />
<glyph unicode="[" horiz-adv-x="634" d="M201 -455v1991h387v-154h-195v-1683h195v-154h-387z" />
<glyph unicode="\" d="M119 1458q0 35 23.5 56.5t54.5 21.5q8 0 15 -2t13 -4t12 -6l9 -7q4 -3 8 -9.5t7 -9.5t6 -10t4 -10t3 -12l5 -6l657 -1773q18 -55 18 -64q0 -35 -23.5 -56.5t-51.5 -21.5q-8 0 -16.5 2t-14.5 4.5t-12.5 7.5t-10.5 9t-8 10t-7 10t-6 12.5l-4 11.5t-4 10t-3 9l-658 1772 q-16 32 -16 55z" />
<glyph unicode="]" horiz-adv-x="634" d="M47 -301h195v1683h-195v154h387v-1991h-387v154z" />
<glyph unicode="^" horiz-adv-x="1314" d="M289 967l286 303h158l289 -303h-156l-211 207l-213 -207h-153z" />
<glyph unicode="_" horiz-adv-x="1673" d="M180 -500q0 51 66 51h1181q63 0 64 -51q0 -49 -68 -49h-1179q-64 0 -64 49z" />
<glyph unicode="`" d="M207 1366h196l269 -264h-156z" />
<glyph unicode="a" horiz-adv-x="1007" d="M80 272q0 92 84 157t213 94.5t299 35.5v72q0 80 -21 123q-49 94 -153 94q-170 0 -324 -115l-14 172q164 88 342 88q147 0 251.5 -89t114.5 -218l2 -68v-618h-192v74l-2 57q-57 -74 -152.5 -110.5t-193.5 -36.5q-121 0 -187.5 92t-66.5 196zM270 276q0 -59 52.5 -99 t128.5 -40q70 0 129 31t84 82q12 27 12 84v129q-188 -8 -297 -56.5t-109 -130.5z" />
<glyph unicode="b" horiz-adv-x="1058" d="M133 0v1423h193v-567q145 127 338 127q139 0 230 -147.5t91 -346.5q0 -217 -114.5 -361t-276.5 -144q-141 0 -264 122v-106h-197zM330 266q0 -55 53 -92t117 -37q41 0 83 9.5t95 46t80 98.5q31 74 30 198q0 186 -75 267q-72 74 -191 73q-35 0 -67.5 -8t-53 -20.5 t-36 -24.5t-24.5 -22.5t-11 -10.5v-477z" />
<glyph unicode="c" horiz-adv-x="956" d="M72 485q0 205 134 356.5t343 151.5q106 0 172.5 -18.5t161.5 -69.5l-29 -168q-88 57 -145.5 77t-159.5 20q-49 0 -92 -14.5t-89 -49.5t-73 -108.5t-27 -178.5q0 -182 85 -261t190 -79q172 0 338 113l14 -170q-170 -102 -350 -102q-205 0 -339 147t-134 354z" />
<glyph unicode="d" horiz-adv-x="1058" d="M72 485q0 203 102 350.5t258 147.5q162 0 299 -119v559h193v-1423h-197v121q-137 -137 -297 -137q-154 0 -256 148t-102 353zM268 457q4 -147 60 -224q70 -96 207 -96q37 0 69.5 11.5t53 26.5t36 31.5t23.5 29t10 12.5v504q-78 78 -170 77q-137 0 -211 -81 q-74 -76 -78 -248v-43z" />
<glyph unicode="e" horiz-adv-x="964" d="M59 489q0 203 130 353.5t325 150.5q68 0 128 -20.5t122.5 -68.5t100.5 -149.5t38 -242.5h-659v-20q0 -147 87 -251t216 -104q170 0 330 117l14 -166q-162 -104 -344 -104q-213 0 -350.5 150t-137.5 355zM268 633h467q-51 205 -223 205q-76 0 -144.5 -54.5t-99.5 -150.5z " />
<glyph unicode="f" horiz-adv-x="657" d="M57 813v154h144v108q0 94 23.5 157.5t97.5 123.5q100 84 251 84q74 0 170 -17v-174q-100 35 -174 35q-70 0 -125 -29.5t-55 -99.5v-188h225v-154h-221v-813h-192v813h-144z" />
<glyph unicode="g" horiz-adv-x="1058" d="M72 487q0 207 116.5 351.5t276.5 144.5q154 0 266 -143v143h193v-965q0 -180 -115 -287.5t-281 -107.5q-195 0 -378 92v168q102 -55 183 -80.5t191 -25.5q78 0 140.5 56t62.5 187v144l-2 69q-100 -182 -283 -182q-145 0 -257.5 121.5t-112.5 314.5zM268 487 q0 -121 80 -200.5t184 -79.5q70 0 116 50t61.5 114.5t17.5 140.5h4v147q0 59 -49 114.5t-125 55.5q-111 0 -200 -97.5t-89 -244.5z" />
<glyph unicode="h" horiz-adv-x="1058" d="M131 0v1423h193v-532l2 -86q104 178 305 178q82 0 140 -24.5t87 -57.5t45.5 -86t18.5 -87t2 -83v-645h-197v649q0 82 -42 131t-157 49q-63 0 -107 -31.5t-62.5 -81.5t-24.5 -88t-6 -75v-553h-197z" />
<glyph unicode="i" horiz-adv-x="460" d="M133 0v967h193v-967h-193zM133 1229v192h193v-192h-193z" />
<glyph unicode="j" horiz-adv-x="520" d="M-156 -299l41 156q84 -53 160 -54q115 0 143 56q6 12 7 41v1067h192v-1061q-2 -66 -24.5 -116t-52 -76.5t-68.5 -44t-70 -22.5t-61 -5q-132 0 -267 59zM195 1229v192h192v-192h-192z" />
<glyph unicode="k" horiz-adv-x="997" d="M137 0v1423h182v-841l359 385h233l-340 -369l390 -598h-209l-306 469l-131 -141v-328h-178z" />
<glyph unicode="l" horiz-adv-x="460" d="M133 0v1423h193v-1423h-193z" />
<glyph unicode="m" horiz-adv-x="1654" d="M131 0v967h188v-99l3 -69q109 184 309 184q74 0 129 -19.5t82.5 -48t43 -57.5t21.5 -47l6 -20q106 193 316 192q80 0 138 -24.5t87 -56.5t45.5 -84t19.5 -87t3 -86v-645h-197v635q0 33 -2 50t-12.5 49t-30.5 49.5t-60 31.5t-98 14q-76 0 -136 -63.5t-60 -212.5v-553h-199 v635q0 35 -2 50t-12.5 49t-29.5 50.5t-59 30.5t-98 14q-76 0 -137 -63.5t-61 -212.5v-553h-197z" />
<glyph unicode="n" horiz-adv-x="1058" d="M131 0v967h188v-99l3 -69q23 39 52 74.5t100 72.5t157 37q82 0 140 -24.5t87 -57.5t45.5 -86t18.5 -87t2 -83v-645h-197v649q0 82 -42 131t-157 49q-63 0 -107 -31.5t-62.5 -81.5t-24.5 -88t-6 -75v-553h-197z" />
<glyph unicode="o" d="M59 481q0 199 134.5 354.5t343.5 155.5q197 0 337 -149.5t140 -362.5q0 -203 -138.5 -349t-338.5 -146q-193 0 -335.5 141t-142.5 356zM256 502q0 -188 76 -273q74 -86 205 -86q281 0 280 361v10q-2 174 -80 249t-200 75q-281 0 -281 -336z" />
<glyph unicode="p" horiz-adv-x="1058" d="M133 -342v1309h193v-113q156 129 344 129q137 0 226 -147.5t89 -350.5q0 -213 -114.5 -357t-276.5 -144q-145 0 -264 122v-448h-197zM330 233l32 -40q10 -12 50.5 -34t85.5 -22q111 0 199.5 97.5t88.5 250.5q0 139 -77.5 239.5t-190.5 100.5q-100 0 -188 -84v-508z" />
<glyph unicode="q" horiz-adv-x="1058" d="M72 481q0 211 114.5 356.5t274.5 145.5q154 0 270 -145v145h193v-1325h-197v465q-135 -139 -291 -139q-147 0 -255.5 141t-108.5 356zM268 481q0 -139 79 -241.5t190 -102.5q70 0 132 46t62 112v356q0 66 -50 120t-122 54q-113 0 -202 -97t-89 -247z" />
<glyph unicode="r" horiz-adv-x="708" d="M133 0v967h184v-209q121 221 359 225v-174q-53 0 -108.5 -15.5t-113 -49t-93 -100t-35.5 -159.5v-485h-193z" />
<glyph unicode="s" horiz-adv-x="823" d="M59 80l31 176q168 -113 332 -113q94 0 134 38t40 87q0 47 -36 78t-77 41t-104.5 22.5t-89.5 22.5q-88 29 -152.5 98.5t-64.5 174.5q0 49 14 93t49 91t109.5 75.5t181.5 28.5q156 0 317 -69l-30 -168q-154 84 -310 84q-84 0 -118.5 -35t-34.5 -78q0 -74 90 -106 q10 -4 112.5 -25t159.5 -51q162 -90 162 -260q0 -117 -79 -209t-271 -92q-191 0 -365 96z" />
<glyph unicode="t" horiz-adv-x="776" d="M39 813v154h168v276h184v-276h287v-154h-287v-469q0 -201 107 -201q20 0 39.5 3.5t36 9.5t29.5 12t26 14l19 14q7 5 15.5 12t10.5 7l41 -147q-154 -84 -332 -84q-180 0 -180 338v491h-164z" />
<glyph unicode="u" horiz-adv-x="1058" d="M131 268v699h197v-684q2 -100 14 -121q23 -33 141 -33q109 0 171.5 57.5t70.5 132.5q2 20 2 64v584h197v-967h-193v154l-20 -25q-12 -14 -48 -42t-76 -49.5t-104.5 -37.5t-134.5 -16q-74 0 -121 25.5t-66.5 74.5t-24.5 88t-5 96z" />
<glyph unicode="v" horiz-adv-x="937" d="M29 967h192q231 -692 248 -770l31 110l217 660h190l-327 -973h-224z" />
<glyph unicode="w" horiz-adv-x="1417" d="M29 967h190l158 -580l33 -137l8 -53q8 109 196 770h177l141 -506q53 -209 63 -264q6 47 53 224l96 354l54 192h186l-276 -973h-219l-127 459l-35 143l-27 127l-6 47q-2 -53 -31.5 -182t-62.5 -248l-65 -230q-33 -112 -33 -116h-197z" />
<glyph unicode="x" horiz-adv-x="937" d="M0 0l379 500v2l-367 465h211l240 -320l229 320h209l-354 -465v-2l391 -500h-211l-264 383h-2l-252 -383h-209z" />
<glyph unicode="y" horiz-adv-x="937" d="M29 967h196l109 -291l68 -187q26 -68 41.5 -122t19.5 -66t11 -54t9 -50q4 59 40 187t76 246l78 223q38 105 40 114h190l-356 -1008q-51 -143 -125 -230t-207 -87q-82 0 -153 14l-17 170q111 -31 172 -31q41 0 71 14.5t52.5 52.5t30.5 58.5t28 79.5z" />
<glyph unicode="z" horiz-adv-x="921" d="M59 0v78q0 10 1 16t5.5 14.5t8.5 13.5t15 22.5t22 29.5l485 643h-506v150h768v-101l-534 -712h542v-154h-807z" />
<glyph unicode="{" d="M100 463v155q125 0 224.5 52.5t111.5 154.5l2 49v404q0 35 2 51.5t15.5 55t52.5 67.5t100 51q90 33 207 33h156v-154q-109 -2 -160 -4t-98 -12t-62.5 -28.5t-15.5 -51.5v-416q0 -16 -2 -43.5t-28.5 -91t-76.5 -104.5q-29 -25 -61.5 -42.5t-63 -25.5t-53 -12t-47 -7 t-29.5 -3q135 -4 236.5 -77t120.5 -185q4 -23 4 -70v-414q0 -57 63.5 -75.5t272.5 -20.5v-154h-109q-166 0 -254 31q-39 14 -69.5 32.5t-48 38t-28.5 38t-16.5 39t-6.5 33t-1 28.5v18v404q-4 74 -18 104q-35 72 -123 112t-197 40z" />
<glyph unicode="|" horiz-adv-x="598" d="M248 -385v1851q0 68 49 68q51 0 51 -70v-1841q0 -78 -49 -78q-51 0 -51 70z" />
<glyph unicode="}" d="M100 -301q111 2 166.5 5t100.5 13.5t58 27.5t13 50v414q0 154 107 240q29 25 61.5 42t63 26t53 13.5t46.5 7.5t28 3q-51 2 -106.5 17t-116 49t-98.5 102.5t-38 160.5v416q0 57 -64.5 75.5t-273.5 20.5v154h111q178 -4 254 -33q45 -16 79 -38.5t50 -43t26.5 -45t11.5 -41 t2 -36t1 -21.5v-404q4 -78 16 -106q35 -72 122 -111t198 -39v-155q-125 0 -223.5 -52.5t-110.5 -154.5l-2 -49v-404q-4 -82 -22.5 -114.5t-48 -58t-64.5 -40t-71 -24.5t-75 -14.5t-65.5 -5.5t-50.5 -1h-27h-111v154z" />
<glyph unicode="~" horiz-adv-x="1314" d="M178 1155q4 121 87 193.5t190 72.5q78 0 205.5 -56t189.5 -56q51 0 88 28.5t41 85.5h156q-4 -119 -83 -192.5t-192 -75.5h-2q-78 0 -206 56.5t-189 56.5q-53 0 -89 -29t-42 -84h-154z" />
<glyph unicode="&#xa1;" horiz-adv-x="665" d="M211 -342l25 999h190l25 -999h-240zM211 840v239h240v-239h-240z" />
<glyph unicode="&#xa2;" d="M72 483q0 178 119.5 324.5t328.5 179.5v160h154v-156q2 -2 12 -2h25q102 0 293 -84l-31 -168q-96 51 -153.5 69.5t-145.5 24.5v-686q154 14 325 111l15 -170q-158 -84 -340 -100v-156h-154v160q-190 27 -319 166t-129 327zM268 485q0 -139 69 -225t183 -108v673 q-86 -18 -142 -64t-76.5 -107.5t-27 -96.5t-6.5 -72z" />
<glyph unicode="&#xa3;" horiz-adv-x="1374" d="M119 121q0 86 86 125t192 39q53 0 95 -9q6 35 6 101v258h-142v153h142v259q0 217 119.5 343t275.5 126q168 0 264 -138.5t96 -302.5q0 -90 -90 -98q-80 10 -90 90h-16q-2 293 -166 293q-104 0 -156 -82q-41 -68 -41 -213v-277h201v-153h-201v-205q0 -8 1 -26.5t1 -26.5 q0 -82 -24 -146q236 -94 372 -94q43 0 57.5 29t14.5 104v15h197q-4 -137 -105.5 -219t-240.5 -82q-72 0 -164 23.5t-161 49t-75 25.5q-115 -98 -266 -98q-76 0 -129 39t-53 98z" />
<glyph unicode="&#xa4;" horiz-adv-x="1644" d="M106 -39q0 14 18.5 34.5t121.5 123.5l88 88q-152 180 -152 416q0 225 152 413q-211 211 -221 230q-6 8 -7 20q0 20 13.5 35.5t36.5 15.5h4q12 0 28.5 -13t102.5 -101l115 -115q174 152 413 152q233 0 416 -152q211 211 229 221q8 6 21 6q49 0 49 -53q0 -14 -18.5 -34.5 t-120.5 -123.5l-88 -88q152 -180 151 -415q0 -225 -151 -414q172 -170 199.5 -201t27.5 -49q0 -20 -13.5 -34.5t-35.5 -14.5h-4q-14 0 -35 18.5t-123 120.5l-88 88q-178 -152 -414 -151q-229 0 -415 151q-170 -172 -201 -199.5t-49 -27.5q-50 0 -50 53zM283 623 q0 -221 155.5 -380t382.5 -159q217 0 377 155.5t160 383.5q0 221 -155.5 378.5t-383.5 157.5q-217 0 -376.5 -154.5t-159.5 -381.5z" />
<glyph unicode="&#xa5;" horiz-adv-x="1382" d="M-70 434q0 78 97 78h559v57l-152 224h-401q-55 0 -80 22q-23 23 -23 55q0 57 58 74q14 4 47 4h293l-322 475h254l322 -475h243l322 475h227l-321 -475h293q33 0 47 -4q27 -6 43 -27.5t16 -46t-16.5 -47t-44.5 -28.5q-14 -2 -43 -2h-400l-133 -195l-18 -33l-2 -24v-29h561 q96 0 96 -78q0 -76 -96 -76h-561v-358h-209v358h-559q-97 0 -97 76zM686 793l19 -27l16 27h-35z" />
<glyph unicode="&#xa6;" horiz-adv-x="358" d="M127 307q0 37 16.5 51.5t34.5 14.5q49 0 49 -66v-688q0 -72 -49 -72q-51 0 -51 64v696zM127 774v696q0 63 51 64q49 0 49 -64v-690q0 -70 -49 -69q-51 0 -51 63z" />
<glyph unicode="&#xa7;" horiz-adv-x="972" d="M94 -215l31 176q80 -82 139 -115q92 -49 209 -49q82 0 119 59.5t37 120.5q0 33 -12.5 62t-28 47t-41 35.5t-42 26t-42 19.5t-29.5 13q-137 66 -212 163t-75 210q0 51 14.5 97t34 77t40 53.5t34.5 34.5l15 12q-137 111 -138 273q0 133 95.5 236.5t249.5 103.5 q174 0 323 -115l-31 -170q-41 39 -69.5 61.5t-89 45t-129.5 22.5q-82 0 -119 -59.5t-37 -122.5q0 -29 7 -52.5t22.5 -43t30 -34t38 -26.5t35.5 -19t33.5 -15.5t23.5 -10.5q117 -53 204 -146t87 -227q0 -51 -14 -97t-33.5 -76.5t-40 -53t-35.5 -35.5l-14 -12 q137 -115 137 -272q0 -131 -93 -235.5t-253 -104.5q-209 0 -381 143zM340 555q0 -49 27.5 -91t64.5 -62.5t64.5 -32t35.5 -11.5q12 0 34 17.5t42.5 58.5t20.5 92q0 66 -48.5 115t-89 65.5t-55.5 16.5q-25 0 -60.5 -48t-35.5 -120z" />
<glyph unicode="&#xa8;" d="M231 1174v192h193v-192h-193zM649 1174v192h193v-192h-193z" />
<glyph unicode="&#xf24d;" d="M231 1174v192h193v-192h-193zM649 1174v192h193v-192h-193z" />
<glyph unicode="&#xa9;" horiz-adv-x="2234" d="M119 541q0 428 297 733q100 102 214.5 168.5t220 91.5t159 31t102.5 6h6q262 0 489.5 -133t365.5 -373t138 -526q0 -430 -294 -734q-100 -100 -215 -166.5t-220.5 -91t-159 -30.5t-102.5 -6h-6q-264 0 -492.5 135t-365.5 372.5t-137 522.5zM219 541q0 -252 120 -466 t326.5 -339t448.5 -125q369 0 633 270.5t264 657.5q0 385 -261 658t-632 273q-180 0 -346 -72.5t-288 -195.5t-193.5 -295.5t-71.5 -365.5zM530 498q0 219 214 375.5t528 156.5q147 0 309 -49l-37 -213l-75 51q-22 14 -79 31.5t-126 17.5q-213 0 -366 -108.5t-153 -261.5 q0 -152 152 -260.5t375 -108.5q80 0 137 13.5t88 28.5t92 54l17 -180q-94 -47 -157 -63.5t-181 -16.5q-311 0 -524.5 157t-213.5 376z" />
<glyph unicode="&#xaa;" horiz-adv-x="956" d="M43 590q0 66 68 76q14 2 43 2h637q63 0 81 -13q39 -23 39 -65q0 -29 -21.5 -53.5t-72.5 -24.5h-682q-37 0 -59.5 16.5t-27.5 32t-5 29.5zM80 952q0 37 30.5 54.5t98.5 31.5q72 14 133 20.5t130 8.5t85 4v96q0 250 -117 250h-2q-145 0 -260 -125l-14 172q129 96 280 97 q117 0 213.5 -94.5t96.5 -299.5v-399h-193v123q-109 -139 -287 -139q-90 0 -142 64t-52 136zM268 963q12 -57 113 -58q84 0 143 72q-199 0 -256 -14z" />
<glyph unicode="&#xab;" horiz-adv-x="1433" d="M238 483l450 484h170l-436 -484l436 -483h-170zM596 483l451 484h170l-437 -484l437 -483h-170z" />
<glyph unicode="&#xac;" horiz-adv-x="1314" d="M121 696q0 51 67 52h940q66 0 66 -70v-399q0 -74 -49 -74q-51 0 -51 65v375h-914q-59 4 -59 51z" />
<glyph unicode="&#xad;" horiz-adv-x="358" d="M23 408v153h573v-153h-573z" />
<glyph unicode="&#xae;" horiz-adv-x="2234" d="M119 541q0 428 297 733q100 102 214.5 168.5t220 91.5t159 31t102.5 6h6q262 0 489.5 -133t365.5 -373t138 -526q0 -430 -294 -734q-100 -100 -215 -166.5t-220.5 -91t-159 -30.5t-102.5 -6h-6q-264 0 -492.5 135t-365.5 372.5t-137 522.5zM219 541q0 -252 120 -466 t326.5 -339t448.5 -125q369 0 633 270.5t264 657.5q0 385 -261 658t-632 273q-180 0 -346 -72.5t-288 -195.5t-193.5 -295.5t-71.5 -365.5zM651 0v995h496q225 0 375 -67q190 -86 190 -223q0 -94 -96 -164t-227 -99l385 -442h-215l-361 420h-336v-420h-211zM862 575h316 q334 0 333.5 129.5t-329.5 129.5h-320v-259z" />
<glyph unicode="&#xaf;" d="M147 1237v164h777v-164h-777z" />
<glyph unicode="&#xb0;" horiz-adv-x="716" d="M119 1184q0 94 67.5 165.5t170 71.5t171 -70.5t68.5 -166.5q0 -94 -67.5 -166t-170 -72t-171 71t-68.5 167zM219 1184q0 -55 39 -96t100 -41q53 0 94.5 38.5t41.5 98.5q0 55 -38 96t-100 41q-53 0 -95 -39t-42 -98z" />
<glyph unicode="&#xb1;" horiz-adv-x="1314" d="M121 233q0 39 41 48q12 2 35 2h409v387h-416q-68 0 -69 49q2 51 69 51h416v414q0 72 49 71q51 0 52 -73v-412h415q68 0 70 -51q-2 -49 -70 -49h-415v-387h383q78 0 92 -21q10 -10 10 -29q0 -51 -64 -51h-940q-67 0 -67 51z" />
<glyph unicode="&#xb2;" horiz-adv-x="956" d="M88 1436q88 74 169 104.5t187 30.5q174 0 288 -88t114 -228q0 -47 -19.5 -81.5t-59.5 -58t-76 -39t-93 -35t-90 -33.5q-12 -6 -234 -125h572v-172h-740v170l204 116q40 23 80 37.5t99 42.5q41 18 67 32.5t56.5 54.5t30.5 87q0 80 -69.5 118t-155.5 38q-63 0 -113.5 -23.5 t-67 -41t-47.5 -54.5z" />
<glyph unicode="&#xb3;" horiz-adv-x="956" d="M88 731l25 158q188 -37 356 -37q180 0 180 109q0 57 -51 83q-45 27 -137 27h-105v156q2 0 35 2t45 4l43 7q31 5 45.5 12.5l35 18.5t29.5 28.5t11 39.5q-4 41 -29.5 58.5t-97.5 17.5h-2q-135 0 -266 -74l-86 144q168 86 344 86q141 0 241.5 -65.5t100.5 -166.5 q0 -119 -131 -194q190 -66 190 -184q0 -98 -107.5 -182.5t-295.5 -84.5q-183 0 -373 37z" />
<glyph unicode="&#xb4;" d="M399 1102l269 264h196l-309 -264h-156z" />
<glyph unicode="&#xb5;" horiz-adv-x="1058" d="M131 -342v1309h197v-684q2 -100 14 -121q23 -33 141 -33q109 0 171.5 57.5t70.5 132.5q2 20 2 64v584h197v-967h-193v154q-147 -170 -403 -170v-326h-197z" />
<glyph unicode="&#xb6;" horiz-adv-x="1314" d="M119 956q0 193 141 318t334 145q61 4 90 4h490q78 0 77 -51q0 -33 -30 -45q-12 -6 -54 -6h-92v-1589q0 -72 -51 -72q-49 0 -49 70v1591h-150v-1585q0 -76 -51 -76q-37 0 -47 35q-4 10 -4 51v746q-141 10 -251 45.5t-174.5 84t-106 110t-57 115.5t-15.5 109z" />
<glyph unicode="&#xb7;" horiz-adv-x="528" d="M166 416v192h192v-192h-192z" />
<glyph unicode="&#xb8;" horiz-adv-x="956" d="M240 -334l159 297h156l-139 -297h-176z" />
<glyph unicode="&#xb9;" horiz-adv-x="956" d="M147 1262v155q260 0 404 154h49v-705h205v-155h-627v155h223v443q-115 -45 -254 -47z" />
<glyph unicode="&#xba;" horiz-adv-x="956" d="M43 590q0 66 68 76q14 2 43 2h637q63 0 81 -13q39 -23 39 -65q0 -29 -21.5 -53.5t-72.5 -24.5h-682q-37 0 -59.5 16.5t-27.5 32t-5 29.5zM59 1149q0 168 121 290t297 122q172 0 295 -121t123 -291q0 -162 -121 -279.5t-297 -117.5q-178 0 -298 117.5t-120 279.5z M256 1165q0 -121 48 -187.5t171 -66.5q131 0 176 69t45 183q0 113 -45 178.5t-174 65.5q-72 0 -119 -21.5t-67.5 -61.5t-27.5 -76t-7 -83z" />
<glyph unicode="&#xbb;" horiz-adv-x="1433" d="M215 0l438 483l-438 484h170l451 -484l-451 -483h-170zM573 0l439 483l-439 484h170l451 -484l-451 -483h-170z" />
<glyph unicode="&#xbc;" horiz-adv-x="956" d="M10 600q4 23 16.5 33t22.5 12t31 2h792q72 0 72 -51q0 -49 -67 -49h-801q-33 0 -48.5 14t-16.5 20.5t-1 18.5zM59 -51l390 514h243v-514h203v-164h-203v-127h-192v127h-441v164zM147 1337v154q125 2 209 14.5t115 26.5l57 27q27 12 52 12h22v-668h203v-155h-627v155h223 v455q-123 -21 -254 -21zM268 -51h240v350q-16 -41 -62.5 -109.5t-106 -145.5t-71.5 -95z" />
<glyph unicode="&#xbd;" horiz-adv-x="956" d="M10 600q4 23 16.5 33t22.5 12t31 2h792q72 0 72 -51q0 -49 -67 -49h-801q-33 0 -48.5 14t-16.5 20.5t-1 18.5zM88 381q172 100 356 100q180 0 291 -76.5t111 -203.5q0 -45 -18.5 -80t-56.5 -58.5t-72.5 -39t-90 -36t-86.5 -34.5q-23 -10 -235 -131h561v-164h-742v156 l224 133l97.5 45t107 50t73.5 61t35 93.5t-41 83t-86 40t-96 8.5q-57 0 -102.5 -15.5t-68 -31t-59.5 -45.5zM147 1337v154q125 2 209 14.5t115 26.5l57 27q27 12 52 12h22v-668h203v-155h-627v155h223v455q-123 -21 -254 -21z" />
<glyph unicode="&#xbe;" horiz-adv-x="956" d="M10 600q4 23 16.5 33t22.5 12t31 2h792q72 0 72 -51q0 -49 -67 -49h-801q-33 0 -48.5 14t-16.5 20.5t-1 18.5zM59 -51l390 514h243v-514h203v-164h-203v-127h-192v127h-441v164zM88 729l25 156q178 -12 327 -13h21q90 0 131 19q57 29 57 86q0 51 -49 78q-45 27 -137 26 h-107v154q8 0 37 3t43.5 4t41 5t42 10.5t33.5 15.5t28.5 22.5t16.5 29.5l2 18q-4 45 -33.5 58.5t-97.5 13.5q-127 0 -264 -51l-86 143q176 63 340 64q147 0 246.5 -64.5t99.5 -163.5q0 -113 -127 -190q186 -66 186 -180q0 -27 -16.5 -64t-56 -84t-128 -78.5t-210.5 -31.5 q-195 0 -365 14zM268 -51h240v350q-16 -41 -62.5 -109.5t-106 -145.5t-71.5 -95z" />
<glyph unicode="&#xbf;" horiz-adv-x="1015" d="M119 -47q0 39 7 73.5t14 56t25.5 46.5t26 33t28.5 28l24 23q137 143 137 377v67h192v-67q0 -119 -32.5 -223.5t-66.5 -154.5t-82 -105.5t-50 -57.5q-27 -41 -27 -104v-11q0 -49 10.5 -77.5t36 -41t48 -16.5t69.5 -4q186 2 357 111l59 -162q-199 -102 -416 -102 q-106 0 -182 30.5t-113 80.5t-51 98.5t-14 101.5zM356 840v239h240v-239h-240z" />
<glyph unicode="&#xc0;" horiz-adv-x="1382" d="M59 0l516 1440h232l514 -1440h-223l-123 348h-596l-123 -348h-197zM381 1743h254h10q4 0 10.5 -2t11.5 -4t15 -7.5l20 -11.5l30 -17l40 -24l53 -31l68 -40l84 -50h-186l-33 3zM438 510h480q-225 641 -240 715q-16 -63 -58 -190l-100 -290z" />
<glyph unicode="&#xc1;" horiz-adv-x="1382" d="M59 0l516 1440h232l514 -1440h-223l-123 348h-596l-123 -348h-197zM406 1556l274 162l41 23l39 2h168l73 -2l-333 -164l-43 -18l-33 -3h-186zM438 510h480q-225 641 -240 715q-16 -63 -58 -190l-100 -290z" />
<glyph unicode="&#xc2;" horiz-adv-x="1382" d="M59 0l516 1440h232l514 -1440h-223l-123 348h-596l-123 -348h-197zM328 1489l266 348h192l234 -348h-156l-190 231l-193 -231h-153zM438 510h480q-225 641 -240 715q-16 -63 -58 -190l-100 -290z" />
<glyph unicode="&#xc3;" horiz-adv-x="1382" d="M59 0l516 1440h232l514 -1440h-223l-123 348h-596l-123 -348h-197zM332 1489q0 147 59.5 239.5t155.5 92.5q39 0 79 -28t66.5 -59.5t60 -59t66.5 -27.5q23 0 41 10q12 14 19.5 30.5t9.5 24.5t3 36t3 40v33h154q0 -143 -59.5 -237.5t-153.5 -94.5q-61 0 -145.5 88 t-129.5 88q-16 0 -41 -10q-12 -14 -19 -29.5t-8 -27t-2.5 -36t-3.5 -38.5v-35h-155zM438 510h480q-225 641 -240 715q-16 -63 -58 -190l-100 -290z" />
<glyph unicode="&#xc4;" horiz-adv-x="1382" d="M59 0l516 1440h232l514 -1440h-223l-123 348h-596l-123 -348h-197zM385 1628v193h193v-193h-193zM438 510h480q-225 641 -240 715q-16 -63 -58 -190l-100 -290zM803 1628v193h192v-193h-192z" />
<glyph unicode="&#xc5;" horiz-adv-x="1382" d="M59 0l478 1333l-9 8l-13 14q-5 5 -14 15t-15.5 20.5t-15.5 23.5t-14 28.5l-10.5 33t-8.5 39t-3 44.5q0 111 69.5 191.5t170.5 80.5q88 0 163.5 -72.5t75.5 -206.5q0 -109 -77 -194l485 -1358h-223l-123 348h-596l-123 -348h-197zM438 510h480q-225 641 -240 715 q-16 -63 -58 -190l-100 -290zM555 1556q0 -70 26.5 -93t90.5 -23q72 0 96.5 25.5t24.5 93.5q0 66 -25 92t-88 26q-68 0 -96.5 -21.5t-28.5 -99.5z" />
<glyph unicode="&#xc6;" horiz-adv-x="1826" d="M59 0l564 1423h1083v-163h-619v-439h560v-164h-560v-485h650v-172h-860v406h-459l-160 -406h-199zM483 569h394v691h-121z" />
<glyph unicode="&#xc7;" horiz-adv-x="1374" d="M131 713q0 299 202 521t505 222q207 0 403 -70l-37 -212q-96 63 -172 91.5t-188 28.5q-217 0 -357.5 -174t-140.5 -409.5t140.5 -408.5t359.5 -173q102 0 183 21.5t110.5 39t109.5 68.5l17 -178q-76 -43 -118 -62.5t-121 -36t-181 -16.5q-209 0 -375 106.5t-253 276.5 t-87 365zM596 -334l160 297h155l-139 -297h-176z" />
<glyph unicode="&#xc8;" horiz-adv-x="1280" d="M164 0v1417h993v-162h-778v-436h719v-164h-719v-483h809v-172h-1024zM285 1743h254h10q4 0 10 -2t11 -4t15.5 -7.5t20.5 -11.5l30 -17l40 -24l53 -31l68 -40l84 -50h-187l-32 3z" />
<glyph unicode="&#xc9;" horiz-adv-x="1280" d="M164 0v1417h993v-162h-778v-436h719v-164h-719v-483h809v-172h-1024zM399 1556l275 162l41 23l39 2h168l73 -2l-333 -164l-44 -18l-32 -3h-187z" />
<glyph unicode="&#xca;" horiz-adv-x="1280" d="M164 0v1417h993v-162h-778v-436h719v-164h-719v-483h809v-172h-1024zM250 1489l266 348h158l268 -348h-156l-192 231l-191 -231h-153z" />
<glyph unicode="&#xcb;" horiz-adv-x="1280" d="M164 0v1417h993v-162h-778v-436h719v-164h-719v-483h809v-172h-1024zM289 1628v193h192v-193h-192zM707 1628v193h192v-193h-192z" />
<glyph unicode="&#xcc;" horiz-adv-x="546" d="M-68 1743h254h11q4 0 10 -2t11 -4t15.5 -7.5t20.5 -11.5l30 -17l40 -24l53 -31l67 -40l84 -50h-186l-33 3zM166 0v1423h215v-1423h-215z" />
<glyph unicode="&#xcd;" horiz-adv-x="546" d="M76 1556l176 105q102 61 122.5 71.5t43.5 10.5h180l74 -2l-332 -164l-43 -18l-35 -3h-186zM166 0v1423h215v-1423h-215z" />
<glyph unicode="&#xce;" horiz-adv-x="546" d="M-72 1489l267 348h157l269 -348h-156l-191 231l-192 -231h-154zM166 0v1423h215v-1423h-215z" />
<glyph unicode="&#xcf;" horiz-adv-x="546" d="M-31 1628v193h193v-193h-193zM168 0v1423h215v-1423h-215zM387 1628v193h193v-193h-193z" />
<glyph unicode="&#xd0;" horiz-adv-x="1527" d="M-25 621v155h195v647h541q76 0 114 -6q244 -29 414 -233.5t170 -483.5q0 -270 -169 -468.5t-415 -227.5q-37 -4 -112 -4h-543v621h-195zM379 164h235q10 0 31 -1t29 -1q150 0 257 47t162.5 129t80 171t24.5 191q0 106 -24.5 197.5t-80 177.5t-163 135.5t-258.5 49.5h-293 v-484h373v-155h-373v-457z" />
<glyph unicode="&#xd1;" horiz-adv-x="1449" d="M170 0v1423h299l618 -1230v1230h191v-1423h-299l-617 1231v-1231h-192zM365 1489q4 174 69.5 253t145.5 79q66 0 147.5 -88t134.5 -88q68 2 68 147q0 6 -1 15.5t-1 13.5h155q-4 -174 -69.5 -253t-145.5 -79q-66 0 -145.5 88t-134.5 88q-68 0 -68 -147v-29h-155z" />
<glyph unicode="&#xd2;" horiz-adv-x="1603" d="M119 707q0 305 197.5 527t484.5 222q276 0 479 -216t203 -531q0 -307 -199 -525.5t-483 -218.5q-276 0 -479 214.5t-203 527.5zM334 735q0 -281 136 -444.5t331 -163.5q78 0 155.5 34t150.5 101.5t118 190t45 282.5q0 260 -135.5 411.5t-333.5 151.5q-61 0 -124 -18 t-125.5 -61t-110.5 -105.5t-77.5 -161t-29.5 -217.5zM489 1743h256q14 0 30 -5t44 -22l57 -34l89 -54l120 -72h-186l-33 3z" />
<glyph unicode="&#xd3;" horiz-adv-x="1603" d="M119 707q0 305 197.5 527t484.5 222q276 0 479 -216t203 -531q0 -307 -199 -525.5t-483 -218.5q-276 0 -479 214.5t-203 527.5zM334 735q0 -281 136 -444.5t331 -163.5q78 0 155.5 34t150.5 101.5t118 190t45 282.5q0 260 -135.5 411.5t-333.5 151.5q-61 0 -124 -18 t-125.5 -61t-110.5 -105.5t-77.5 -161t-29.5 -217.5zM516 1556l275 162l40 23l39 2h168l74 -2l-334 -164l-43 -18l-33 -3h-186z" />
<glyph unicode="&#xd4;" horiz-adv-x="1603" d="M119 707q0 305 197.5 527t484.5 222q276 0 479 -216t203 -531q0 -307 -199 -525.5t-483 -218.5q-276 0 -479 214.5t-203 527.5zM334 735q0 -281 136 -444.5t331 -163.5q78 0 155.5 34t150.5 101.5t118 190t45 282.5q0 260 -135.5 411.5t-333.5 151.5q-61 0 -124 -18 t-125.5 -61t-110.5 -105.5t-77.5 -161t-29.5 -217.5zM457 1489l266 348h156l268 -348h-154l-192 229l-191 -229h-153z" />
<glyph unicode="&#xd5;" horiz-adv-x="1603" d="M119 707q0 305 197.5 527t484.5 222q276 0 479 -216t203 -531q0 -307 -199 -525.5t-483 -218.5q-276 0 -479 214.5t-203 527.5zM334 735q0 -281 136 -444.5t331 -163.5q78 0 155.5 34t150.5 101.5t118 190t45 282.5q0 260 -135.5 411.5t-333.5 151.5q-61 0 -124 -18 t-125.5 -61t-110.5 -105.5t-77.5 -161t-29.5 -217.5zM442 1489q2 145 60.5 238.5t154.5 93.5q53 0 101 -44l91 -88q44 -44 89 -44q10 0 19.5 3t16.5 10t11 15t8 19.5t6 19.5t3.5 21.5t1.5 20.5t1 19.5t1 14.5v33h153q-2 -145 -60.5 -238.5t-152.5 -93.5q-43 0 -82 27.5 t-65.5 60.5t-62.5 60.5t-72 27.5q-66 0 -66 -149v-27h-156z" />
<glyph unicode="&#xd6;" horiz-adv-x="1603" d="M119 707q0 305 197.5 527t484.5 222q276 0 479 -216t203 -531q0 -307 -199 -525.5t-483 -218.5q-276 0 -479 214.5t-203 527.5zM334 735q0 -281 136 -444.5t331 -163.5q78 0 155.5 34t150.5 101.5t118 190t45 282.5q0 260 -135.5 411.5t-333.5 151.5q-61 0 -124 -18 t-125.5 -61t-110.5 -105.5t-77.5 -161t-29.5 -217.5zM496 1628v193h192v-193h-192zM913 1628v193h193v-193h-193z" />
<glyph unicode="&#xd7;" horiz-adv-x="1314" d="M264 195q0 25 29 53l293 293v2q-309 307 -316 319q-2 0 -4 6l-2 13q2 53 49 53h4q12 0 40 -24.5t139 -135.5l161 -162q301 303 316 312q2 2 6 4l10 6h17q18 -2 30.5 -16.5t12.5 -30.5q0 -20 -25 -49t-121 -120t-176 -175v-2q307 -307 315 -320l2 -6l5 -14 q0 -23 -12.5 -36t-20.5 -15.5t-15 -2.5h-6q-14 0 -41.5 26l-175.5 173l-123 123q-303 -305 -315 -313q-6 -4 -16 -6l-15 -3q-18 2 -31.5 16t-13.5 32z" />
<glyph unicode="&#xd8;" horiz-adv-x="1673" d="M119 707q0 190 88 361t255 279.5t374 108.5q160 0 299 -67l92 157l137 -78l-94 -165q125 -94 203.5 -253t78.5 -343q0 -317 -215 -529.5t-501 -212.5q-150 0 -299 68l-93 -158l-137 78l94 166q-117 86 -199.5 240.5t-82.5 347.5zM324 705q0 -291 157 -449l578 999 q-109 47 -223 48q-86 0 -168 -28t-163 -90.5t-131 -186t-50 -293.5zM612 166q117 -45 224 -45q86 0 167.5 27.5t162.5 88t131.5 182.5t50.5 290q0 291 -158 454z" />
<glyph unicode="&#xd9;" horiz-adv-x="1417" d="M164 500v923h215v-927q0 -201 92 -289q92 -78 242 -78q90 0 156.5 28.5t100.5 66.5t53 92.5t23.5 90t4.5 74.5v942h198v-925q0 -248 -162.5 -390.5t-377.5 -142.5t-380 142.5t-165 392.5zM397 1743h254h11q4 0 10 -2t11 -4t15.5 -7.5t20.5 -11.5l30 -17l39 -24l54 -31 l67 -40l84 -50h-186l-33 3z" />
<glyph unicode="&#xda;" horiz-adv-x="1417" d="M164 500v923h215v-927q0 -201 92 -289q92 -78 242 -78q90 0 156.5 28.5t100.5 66.5t53 92.5t23.5 90t4.5 74.5v942h198v-925q0 -248 -162.5 -390.5t-377.5 -142.5t-380 142.5t-165 392.5zM510 1556l176 105q102 61 122.5 71.5t43.5 10.5h180l74 -2l-332 -164l-43 -18 l-35 -3h-186z" />
<glyph unicode="&#xdb;" horiz-adv-x="1417" d="M164 500v923h215v-927q0 -201 92 -289q92 -78 242 -78q90 0 156.5 28.5t100.5 66.5t53 92.5t23.5 90t4.5 74.5v942h198v-925q0 -248 -162.5 -390.5t-377.5 -142.5t-380 142.5t-165 392.5zM365 1489l268 348h147l277 -348h-156l-190 231l-191 -231h-155z" />
<glyph unicode="&#xdc;" horiz-adv-x="1417" d="M164 500v923h215v-927q0 -201 92 -289q92 -78 242 -78q90 0 156.5 28.5t100.5 66.5t53 92.5t23.5 90t4.5 74.5v942h198v-925q0 -248 -162.5 -390.5t-377.5 -142.5t-380 142.5t-165 392.5zM401 1628v193h193v-193h-193zM819 1628v193h193v-193h-193z" />
<glyph unicode="&#xdd;" horiz-adv-x="1382" d="M4 1423h254l444 -657l443 657h229l-557 -821q-25 -35 -24 -63v-539h-209v569zM494 1556l176 105q102 61 122.5 71.5t43.5 10.5h180l74 -2l-332 -164l-43 -18l-35 -3h-186z" />
<glyph unicode="&#xde;" horiz-adv-x="1228" d="M168 0v1423h205v-227h260q123 0 219 -41t149.5 -104.5t80 -132t26.5 -136t-26.5 -136t-80 -132t-149.5 -104.5t-221 -41h-258v-369h-205zM373 532h202q170 0 250 80t80 170q0 92 -88 171t-272 79h-170l-2 -71v-429z" />
<glyph unicode="&#xdf;" horiz-adv-x="1007" d="M133 0v1139q0 55 8 82q27 94 128.5 156.5t238.5 62.5q158 0 268.5 -80t110.5 -199q0 -170 -180 -280q240 -190 239 -490q0 -166 -106.5 -286.5t-272.5 -120.5q-84 0 -180 30l51 146q90 -23 127 -23q74 0 129.5 55.5t55.5 196.5q0 186 -81 302t-225 122v154 q133 2 189.5 60t56.5 132q0 39 -17.5 65.5t-42 37t-49 15.5t-42.5 5l-19 2h-28q-55 -2 -92.5 -15.5t-51.5 -38t-18 -42t-4 -41.5v-1147h-193z" />
<glyph unicode="&#xe0;" horiz-adv-x="1007" d="M80 272q0 92 84 157t213 94.5t299 35.5v72q0 80 -21 123q-49 94 -153 94q-170 0 -324 -115l-14 172q164 88 342 88q147 0 251.5 -89t114.5 -218l2 -68v-618h-192v74l-2 57q-57 -74 -152.5 -110.5t-193.5 -36.5q-121 0 -187.5 92t-66.5 196zM270 276q0 -59 52.5 -99 t128.5 -40q70 0 129 31t84 82q12 27 12 84v129q-188 -8 -297 -56.5t-109 -130.5zM328 1366h196l269 -264h-156z" />
<glyph unicode="&#xe1;" horiz-adv-x="1007" d="M80 272q0 92 84 157t213 94.5t299 35.5v72q0 80 -21 123q-49 94 -153 94q-170 0 -324 -115l-14 172q164 88 342 88q147 0 251.5 -89t114.5 -218l2 -68v-618h-192v74l-2 57q-57 -74 -152.5 -110.5t-193.5 -36.5q-121 0 -187.5 92t-66.5 196zM270 276q0 -59 52.5 -99 t128.5 -40q70 0 129 31t84 82q12 27 12 84v129q-188 -8 -297 -56.5t-109 -130.5zM281 1102l268 264h196l-309 -264h-155z" />
<glyph unicode="&#xe2;" horiz-adv-x="1007" d="M80 272q0 92 84 157t213 94.5t299 35.5v72q0 80 -21 123q-49 94 -153 94q-170 0 -324 -115l-14 172q164 88 342 88q147 0 251.5 -89t114.5 -218l2 -68v-618h-192v74l-2 57q-57 -74 -152.5 -110.5t-193.5 -36.5q-121 0 -187.5 92t-66.5 196zM168 1100l266 282h205 l219 -282h-153l-193 186l-190 -186h-154zM270 276q0 -59 52.5 -99t128.5 -40q70 0 129 31t84 82q12 27 12 84v129q-188 -8 -297 -56.5t-109 -130.5z" />
<glyph unicode="&#xe3;" horiz-adv-x="1007" d="M80 272q0 92 84 157t213 94.5t299 35.5v72q0 80 -21 123q-49 94 -153 94q-170 0 -324 -115l-14 172q164 88 342 88q147 0 251.5 -89t114.5 -218l2 -68v-618h-192v74l-2 57q-57 -74 -152.5 -110.5t-193.5 -36.5q-121 0 -187.5 92t-66.5 196zM188 1176q2 117 66.5 185.5 t151.5 68.5q55 0 147 -49.5t125 -49.5q70 0 74 101h153q-2 -117 -65.5 -185.5t-151.5 -68.5q-55 0 -146 49t-126 49q-70 0 -74 -100h-154zM270 276q0 -59 52.5 -99t128.5 -40q70 0 129 31t84 82q12 27 12 84v129q-188 -8 -297 -56.5t-109 -130.5z" />
<glyph unicode="&#xe4;" horiz-adv-x="1007" d="M80 272q0 92 84 157t213 94.5t299 35.5v72q0 80 -21 123q-49 94 -153 94q-170 0 -324 -115l-14 172q164 88 342 88q147 0 251.5 -89t114.5 -218l2 -68v-618h-192v74l-2 57q-57 -74 -152.5 -110.5t-193.5 -36.5q-121 0 -187.5 92t-66.5 196zM197 1174v192h192v-192h-192z M270 276q0 -59 52.5 -99t128.5 -40q70 0 129 31t84 82q12 27 12 84v129q-188 -8 -297 -56.5t-109 -130.5zM614 1174v192h193v-192h-193z" />
<glyph unicode="&#xe5;" horiz-adv-x="1007" d="M80 272q0 92 84 157t213 94.5t299 35.5v72q0 80 -21 123q-49 94 -153 94q-170 0 -324 -115l-14 172q164 88 342 88q147 0 251.5 -89t114.5 -218l2 -68v-618h-192v74l-2 57q-57 -74 -152.5 -110.5t-193.5 -36.5q-121 0 -187.5 92t-66.5 196zM270 276q0 -59 52.5 -99 t128.5 -40q70 0 129 31t84 82q12 27 12 84v129q-188 -8 -297 -56.5t-109 -130.5zM274 1210q0 68 70 117t170 49q96 0 167 -47t71 -119q0 -63 -65.5 -114.5t-174.5 -51.5q-94 0 -166 47t-72 119zM395 1210q0 -49 27 -73.5t92 -24.5q117 0 117 96q0 102 -113 103 q-123 -1 -123 -101z" />
<glyph unicode="&#xe6;" horiz-adv-x="1552" d="M84 279q0 49 22.5 91t56.5 69.5t87 50t96 35t105.5 22.5t94.5 13t81 7l51 4v64q-4 78 -21 113q-45 100 -155 100q-170 0 -324 -115l-14 172q164 86 338 86q61 0 114.5 -14t87 -34.5t57 -40t37 -36t15.5 -16.5q129 141 311 141q49 0 95.5 -11t97.5 -43t88 -83t61.5 -139 t24.5 -203h-617v-25q0 -139 80 -244.5t205 -105.5q160 0 305 117l15 -166q-152 -104 -322 -104q-201 0 -346 153q-131 -154 -469 -153q-72 0 -126 31.5t-80.5 81.5t-39 95.5t-12.5 86.5zM274 281q0 -51 45.5 -97.5t135.5 -46.5q23 0 47 3t74.5 15.5t82 47.5t31.5 88 q0 18 -6 85.5t-6 74.5q-51 0 -108.5 -7.5t-130 -24t-119 -53t-46.5 -85.5zM897 633h422q-12 66 -38 109.5t-56.5 63t-54 26t-46.5 6.5q-74 0 -131 -51.5t-75 -102.5z" />
<glyph unicode="&#xe7;" horiz-adv-x="956" d="M72 485q0 205 134 356.5t343 151.5q106 0 172.5 -18.5t161.5 -69.5l-29 -168q-88 57 -145.5 77t-159.5 20q-49 0 -92 -14.5t-89 -49.5t-73 -108.5t-27 -178.5q0 -182 85 -261t190 -79q172 0 338 113l14 -170q-170 -102 -350 -102q-205 0 -339 147t-134 354zM299 -334 l160 297h155l-139 -297h-176z" />
<glyph unicode="&#xe8;" horiz-adv-x="964" d="M59 489q0 203 130 353.5t325 150.5q68 0 128 -20.5t122.5 -68.5t100.5 -149.5t38 -242.5h-659v-20q0 -147 87 -251t216 -104q170 0 330 117l14 -166q-162 -104 -344 -104q-213 0 -350.5 150t-137.5 355zM268 633h467q-51 205 -223 205q-76 0 -144.5 -54.5t-99.5 -150.5z M332 1366h196l269 -264h-156z" />
<glyph unicode="&#xe9;" horiz-adv-x="964" d="M59 489q0 203 130 353.5t325 150.5q68 0 128 -20.5t122.5 -68.5t100.5 -149.5t38 -242.5h-659v-20q0 -147 87 -251t216 -104q170 0 330 117l14 -166q-162 -104 -344 -104q-213 0 -350.5 150t-137.5 355zM225 1102l269 264h196l-309 -264h-156zM268 633h467 q-51 205 -223 205q-76 0 -144.5 -54.5t-99.5 -150.5z" />
<glyph unicode="&#xea;" horiz-adv-x="964" d="M59 489q0 203 130 353.5t325 150.5q68 0 128 -20.5t122.5 -68.5t100.5 -149.5t38 -242.5h-659v-20q0 -147 87 -251t216 -104q170 0 330 117l14 -166q-162 -104 -344 -104q-213 0 -350.5 150t-137.5 355zM135 1100l266 282h158l268 -282h-155l-191 186l-192 -186h-154z M268 633h467q-51 205 -223 205q-76 0 -144.5 -54.5t-99.5 -150.5z" />
<glyph unicode="&#xeb;" horiz-adv-x="964" d="M59 489q0 203 130 353.5t325 150.5q68 0 128 -20.5t122.5 -68.5t100.5 -149.5t38 -242.5h-659v-20q0 -147 87 -251t216 -104q170 0 330 117l14 -166q-162 -104 -344 -104q-213 0 -350.5 150t-137.5 355zM176 1174v192h193v-192h-193zM268 633h467q-51 205 -223 205 q-76 0 -144.5 -54.5t-99.5 -150.5zM594 1174v192h192v-192h-192z" />
<glyph unicode="&#xec;" horiz-adv-x="460" d="M-98 1366h196l269 -264h-156zM133 0v967h193v-967h-193z" />
<glyph unicode="&#xed;" horiz-adv-x="460" d="M33 1102l268 264h197l-310 -264h-155zM133 0v967h193v-967h-193z" />
<glyph unicode="&#xee;" horiz-adv-x="460" d="M-117 1100l267 282h157l268 -282h-155l-191 186l-192 -186h-154zM133 0v967h193v-967h-193z" />
<glyph unicode="&#xef;" horiz-adv-x="579" d="M-14 1174v192h192v-192h-192zM195 0v967h192v-967h-192zM403 1174v192h193v-192h-193z" />
<glyph unicode="&#xf0;" d="M59 481q0 211 139.5 360.5t338.5 149.5q78 0 149 -24q-86 127 -190 198l-99 -57l-88 152l10 4v2q-100 33 -161 43l133 114q51 -10 94 -24.5t66.5 -23.5t31.5 -9q16 0 109 57l88 -153l-27 -15q133 -96 239.5 -269t121.5 -380v-92q0 -172 -68 -289q-55 -98 -161.5 -169.5 t-247.5 -71.5q-195 0 -336.5 143t-141.5 354zM256 502q0 -188 76 -273q74 -86 205 -86q266 0 280 322v29q0 152 -65.5 248t-214.5 96q-281 0 -281 -336z" />
<glyph unicode="&#xf1;" horiz-adv-x="1058" d="M131 0v967h188v-99l3 -69q23 39 52 74.5t100 72.5t157 37q82 0 140 -24.5t87 -57.5t45.5 -86t18.5 -87t2 -83v-645h-197v649q0 82 -42 131t-157 49q-63 0 -107 -31.5t-62.5 -81.5t-24.5 -88t-6 -75v-553h-197zM170 1176q2 117 66.5 185.5t150.5 68.5q55 0 147.5 -49.5 t124.5 -49.5q70 0 74 101h154q-2 -117 -65.5 -185.5t-151.5 -68.5q-55 0 -146.5 49t-126.5 49q-70 0 -73 -100h-154z" />
<glyph unicode="&#xf2;" d="M59 481q0 199 134.5 354.5t343.5 155.5q197 0 337 -149.5t140 -362.5q0 -203 -138.5 -349t-338.5 -146q-193 0 -335.5 141t-142.5 356zM256 502q0 -188 76 -273q74 -86 205 -86q281 0 280 361v10q-2 174 -80 249t-200 75q-281 0 -281 -336zM328 1366h196l269 -264h-156z " />
<glyph unicode="&#xf3;" d="M59 481q0 199 134.5 354.5t343.5 155.5q197 0 337 -149.5t140 -362.5q0 -203 -138.5 -349t-338.5 -146q-193 0 -335.5 141t-142.5 356zM256 502q0 -188 76 -273q74 -86 205 -86q281 0 280 361v10q-2 174 -80 249t-200 75q-281 0 -281 -336zM399 1102l269 264h196 l-309 -264h-156z" />
<glyph unicode="&#xf4;" d="M59 481q0 199 134.5 354.5t343.5 155.5q197 0 337 -149.5t140 -362.5q0 -203 -138.5 -349t-338.5 -146q-193 0 -335.5 141t-142.5 356zM190 1100l267 282h157l269 -282h-156l-190 186l-193 -186h-154zM256 502q0 -188 76 -273q74 -86 205 -86q281 0 280 361v10 q-2 174 -80 249t-200 75q-281 0 -281 -336z" />
<glyph unicode="&#xf5;" d="M59 481q0 199 134.5 354.5t343.5 155.5q197 0 337 -149.5t140 -362.5q0 -203 -138.5 -349t-338.5 -146q-193 0 -335.5 141t-142.5 356zM178 1176q2 117 66.5 185.5t150.5 68.5q55 0 147.5 -49.5t125.5 -49.5q70 0 73 101h154q-2 -117 -65.5 -185.5t-151.5 -68.5 q-55 0 -146.5 49t-125.5 49q-70 0 -74 -100h-154zM256 502q0 -188 76 -273q74 -86 205 -86q281 0 280 361v10q-2 174 -80 249t-200 75q-281 0 -281 -336z" />
<glyph unicode="&#xf6;" d="M59 481q0 199 134.5 354.5t343.5 155.5q197 0 337 -149.5t140 -362.5q0 -203 -138.5 -349t-338.5 -146q-193 0 -335.5 141t-142.5 356zM231 1174v192h193v-192h-193zM256 502q0 -188 76 -273q74 -86 205 -86q281 0 280 361v10q-2 174 -80 249t-200 75q-281 0 -281 -336z M649 1174v192h193v-192h-193z" />
<glyph unicode="&#xf7;" horiz-adv-x="1314" d="M121 539q0 2 1 10t1 10l6 10q23 23 64 23h937q61 -2 62 -53q0 -47 -66 -47h-940q-65 0 -65 47zM487 -2v199q0 25 3.5 38t17.5 24t45 11h186q33 0 48.5 -3t26.5 -18.5t11 -45.5v-197q0 -25 -1 -36t-16 -25.5t-48 -14.5h-203q-41 0 -55.5 16.5t-14.5 51.5zM487 879v200 q0 23 2.5 34t17.5 24.5t46 13.5h203q43 0 56 -17.5t13 -48.5v-198q0 -25 -2 -37t-16 -25.5t-45 -13.5h-205q-41 0 -55.5 16.5t-14.5 51.5z" />
<glyph unicode="&#xf8;" d="M59 481q0 209 138.5 359.5t339.5 150.5q90 0 186 -39l131 226l133 -80l-135 -234q162 -156 162 -383q0 -207 -138.5 -352t-338.5 -145q-88 0 -183 36l-135 -229l-133 78l137 235q-164 148 -164 377zM246 481q0 -150 59 -237l340 575q-55 18 -108 19q-51 0 -96.5 -14.5 t-92.5 -49.5t-74.5 -109.5t-27.5 -183.5zM432 154q61 -16 107 -17q129 0 208.5 80t79.5 264q0 150 -57 244h-2z" />
<glyph unicode="&#xf9;" horiz-adv-x="1058" d="M131 268v699h197v-684q2 -100 14 -121q23 -33 141 -33q109 0 171.5 57.5t70.5 132.5q2 20 2 64v584h197v-967h-193v154l-20 -25q-12 -14 -48 -42t-76 -49.5t-104.5 -37.5t-134.5 -16q-74 0 -121 25.5t-66.5 74.5t-24.5 88t-5 96zM289 1366h196l269 -264h-156z" />
<glyph unicode="&#xfa;" horiz-adv-x="1058" d="M131 268v699h197v-684q2 -100 14 -121q23 -33 141 -33q109 0 171.5 57.5t70.5 132.5q2 20 2 64v584h197v-967h-193v154l-20 -25q-12 -14 -48 -42t-76 -49.5t-104.5 -37.5t-134.5 -16q-74 0 -121 25.5t-66.5 74.5t-24.5 88t-5 96zM272 1102l269 264h196l-309 -264h-156z " />
<glyph unicode="&#xfb;" horiz-adv-x="1058" d="M131 268v699h197v-684q2 -100 14 -121q23 -33 141 -33q109 0 171.5 57.5t70.5 132.5q2 20 2 64v584h197v-967h-193v154l-20 -25q-12 -14 -48 -42t-76 -49.5t-104.5 -37.5t-134.5 -16q-74 0 -121 25.5t-66.5 74.5t-24.5 88t-5 96zM182 1100l267 282h157l268 -282h-155 l-191 186l-192 -186h-154z" />
<glyph unicode="&#xfc;" horiz-adv-x="1058" d="M131 268v699h197v-684q2 -100 14 -121q23 -33 141 -33q109 0 171.5 57.5t70.5 132.5q2 20 2 64v584h197v-967h-193v154l-20 -25q-12 -14 -48 -42t-76 -49.5t-104.5 -37.5t-134.5 -16q-74 0 -121 25.5t-66.5 74.5t-24.5 88t-5 96zM223 1174v192h193v-192h-193zM641 1174 v192h193v-192h-193z" />
<glyph unicode="&#xfd;" horiz-adv-x="937" d="M29 967h196l109 -291l68 -187q26 -68 41.5 -122t19.5 -66t11 -54t9 -50q4 59 40 187t76 246l78 223q38 105 40 114h190l-356 -1008q-51 -143 -125 -230t-207 -87q-82 0 -153 14l-17 170q111 -31 172 -31q41 0 71 14.5t52.5 52.5t30.5 58.5t28 79.5zM330 1102l268 264h197 l-310 -264h-155z" />
<glyph unicode="&#xfe;" horiz-adv-x="1058" d="M133 -342v1765h193v-569q156 129 344 129q137 0 226 -147.5t89 -350.5q0 -213 -114.5 -357t-276.5 -144q-145 0 -264 122v-448h-197zM330 233l32 -40q10 -12 50.5 -34t85.5 -22q111 0 199.5 97.5t88.5 250.5q0 139 -77.5 239.5t-190.5 100.5q-100 0 -188 -84v-508z" />
<glyph unicode="&#xff;" horiz-adv-x="937" d="M29 967h196l109 -291l68 -187q26 -68 41.5 -122t19.5 -66t11 -54t9 -50q4 59 40 187t76 246l78 223q38 105 40 114h190l-356 -1008q-51 -143 -125 -230t-207 -87q-82 0 -153 14l-17 170q111 -31 172 -31q41 0 71 14.5t52.5 52.5t30.5 58.5t28 79.5zM162 1174v192h192 v-192h-192zM580 1174v192h192v-192h-192z" />
<glyph unicode="&#x152;" horiz-adv-x="2064" d="M33 707q0 299 203.5 524t511.5 225q59 0 164.5 -15.5t154.5 -17.5h877v-163h-744v-439h684v-164h-684v-485h774v-172h-792q-164 -2 -265.5 -18.5t-168.5 -16.5q-291 0 -503 215.5t-212 526.5zM242 737q0 -248 146.5 -432t371.5 -184q49 0 87 6t60.5 23.5t38 32t22.5 46 t10 50t5 60.5t4 60v56l2 39v430l-2 55q0 186 -40 255t-185 69q-229 0 -374.5 -167.5t-145.5 -398.5z" />
<glyph unicode="&#x153;" horiz-adv-x="1673" d="M59 487q0 209 136.5 357.5t328.5 148.5q217 0 369 -192q61 88 154.5 139t197.5 51q61 0 116.5 -18.5t112 -62.5t93.5 -131t43 -210l2 -57h-617q0 -4 -1 -12t-1 -13q0 -139 81 -244.5t206 -105.5q158 0 305 117l14 -166q-152 -104 -321 -104q-238 0 -381 194 q-68 -76 -70 -76q-129 -119 -303 -118q-188 0 -326.5 145t-138.5 358zM248 504q0 -367 276 -367q272 0 273 367v12q-2 100 -29 169t-73 99.5t-86 42t-85 11.5q-51 0 -94 -13.5t-87 -47.5t-69.5 -103.5t-25.5 -169.5zM1016 633h424q-12 66 -38 109.5t-56.5 63t-54 26 t-46.5 6.5q-74 0 -131 -51.5t-78 -102.5z" />
<glyph unicode="&#x178;" horiz-adv-x="1382" d="M4 1423h254l444 -657l443 657h229l-557 -821q-25 -35 -24 -63v-539h-209v569zM383 1628v193h192v-193h-192zM801 1628v193h192v-193h-192z" />
<glyph unicode="&#x2c6;" d="M190 1100l267 282h157l269 -282h-156l-190 186l-193 -186h-154z" />
<glyph unicode="&#x2dc;" d="M178 1044q2 117 66.5 185.5t150.5 68.5q55 0 147.5 -49t125.5 -49q70 0 73 100h154q-2 -117 -65.5 -185t-151.5 -68q-55 0 -146.5 49t-125.5 49q-70 0 -74 -101h-154z" />
<glyph unicode="&#x2013;" d="M0 520v156h1075v-156h-1075z" />
<glyph unicode="&#x2014;" horiz-adv-x="2150" d="M0 520v156h2150v-156h-2150z" />
<glyph unicode="&#x2018;" horiz-adv-x="598" d="M178 954v205q2 25 7 43.5t15 34.5l39 70q30 53 60 116h121l-74 -227h72v-242h-240z" />
<glyph unicode="&#x2019;" horiz-adv-x="598" d="M176 954l74 228h-74v239h242v-204q-2 -25 -7 -42.5t-15 -33.5l-38 -70l-61 -117h-121z" />
<glyph unicode="&#x201a;" horiz-adv-x="598" d="M176 0v240h242v-205q-2 -25 -7 -42.5t-15 -33.5l-38 -70l-61 -116h-121l74 227h-74z" />
<glyph unicode="&#x201c;" horiz-adv-x="716" d="M10 954v205q2 25 7.5 43.5t14.5 34.5l39 70q30 53 60 116h121l-74 -227h72v-242h-240zM465 954v205q2 25 7 43.5t14 34.5l39 70q30 53 61 116h121l-74 -227h72v-242h-240z" />
<glyph unicode="&#x201d;" horiz-adv-x="716" d="M10 954l74 228h-74v239h242v-204q-2 -25 -7 -42.5t-15 -33.5l-37 -70l-62 -117h-121zM463 954l74 228h-74v239h242v-204q-2 -25 -7.5 -42.5t-14.5 -33.5l-38 -70l-61 -117h-121z" />
<glyph unicode="&#x201e;" horiz-adv-x="716" d="M10 0v240h242v-205q-2 -25 -7 -42.5t-15 -33.5l-37 -70l-62 -116h-121l74 227h-74zM463 0v240h242v-205q-2 -25 -7.5 -42.5t-14.5 -33.5l-38 -70l-61 -116h-121l74 227h-74z" />
<glyph unicode="&#x2022;" d="M119 543q0 168 120.5 291.5t297.5 123.5q170 0 293.5 -119.5t123.5 -297.5q0 -168 -119.5 -293t-297.5 -125q-170 0 -294 121t-124 299z" />
<glyph unicode="&#x2026;" horiz-adv-x="1794" d="M178 0v240h240v-240h-240zM776 0v240h240v-240h-240zM1374 0v240h240v-240h-240z" />
<glyph unicode="&#x2039;" horiz-adv-x="835" d="M238 512l204 358h154l-162 -358l162 -358h-154z" />
<glyph unicode="&#x203a;" horiz-adv-x="835" d="M238 154l161 358l-161 358h153l205 -358l-205 -358h-153z" />
<glyph unicode="&#x20ac;" horiz-adv-x="1552" d="M0 481l78 181h188q-2 16 -2 48.5t2 49.5h-266l78 182h223q70 203 251 342t423 139q268 0 471 -188l-76 -180q-51 47 -89 75.5t-124 61.5t-182 33q-117 0 -243 -60.5t-218 -222.5h807l-78 -182h-780l-2 -49l2 -49h737l-78 -181h-608q49 -88 113.5 -148.5t130 -88 t117 -37.5t102.5 -10q82 0 158.5 18t131 45t94.5 52.5t64 43.5l23 21v-197q-209 -180 -473 -180q-240 0 -421 137t-253 344h-301z" />
<glyph unicode="&#x2122;" horiz-adv-x="1433" d="M2 1458q0 78 119 78h473q121 0 121 -80q0 -74 -119 -74h-139v-551q0 -55 -32 -76.5t-67 -21.5q-98 0 -98 103v546h-141q-117 0 -117 76zM737 825v654q2 53 33 72.5t66 19.5q29 0 48 -8.5t38.5 -36t34.5 -55.5l50 -91l68 -120q137 250 154 268q35 43 84 43 q39 0 69.5 -22.5t30.5 -73.5v-646q-6 -96 -100 -96q-76 0 -94 62q-4 14 -5 47v280q-6 -10 -19 -35.5t-18.5 -34t-18.5 -24.5t-22.5 -22.5t-25.5 -11.5t-35 -5q-45 0 -73.5 26.5t-45 64.5t-22.5 44v-290q0 -100 -98 -101q-37 0 -67 20.5t-32 71.5z" />
<glyph unicode="&#xe000;" horiz-adv-x="965" d="M0 965h965v-965h-965v965z" />
<glyph unicode="&#xfb01;" horiz-adv-x="1126" d="M57 813v154h144v110q0 96 16 144q27 90 101.5 154.5t185.5 64.5q45 0 127 -17v-176q-66 37 -129 37q-43 0 -78 -27.5t-35 -99.5v-190h242v-154h-238v-813h-192v813h-144zM797 0v967h192v-967h-192zM797 1231v192h192v-192h-192z" />
<glyph unicode="&#xfb02;" horiz-adv-x="1126" d="M57 813v154h144v110q0 96 16 144q27 90 101.5 154.5t185.5 64.5q45 0 127 -17v-174q-70 35 -127 35q-45 0 -80 -28.5t-35 -98.5v-190h242v-154h-238v-813h-192v813h-144zM797 0v1423h192v-1423h-192z" />
<glyph unicode="&#xfb03;" horiz-adv-x="1724" d="M57 813v154h144v129q0 172 103.5 258t232.5 86q55 0 149 -17v-174q-88 35 -147 35q-150 0 -150 -129v-188h242v-154h-238v-813h-192v813h-144zM799 0v1085q0 84 12 125q27 92 101.5 161t187.5 69q57 0 129 -17v-174q-74 35 -127 35q-45 0 -80 -28.5t-35 -98.5v-190h242 v-154h-238v-813h-192zM1395 0v967h192v-967h-192zM1395 1231v192h192v-192h-192z" />
<glyph unicode="&#xfb04;" horiz-adv-x="1724" d="M57 813v154h144v129q0 172 103.5 258t232.5 86q55 0 149 -17v-174q-88 35 -147 35q-150 0 -150 -129v-188h242v-154h-238v-813h-192v813h-144zM799 0v1087q0 78 10 117q25 94 101.5 165t191.5 71q45 0 127 -17v-174q-70 35 -127 35q-45 0 -80 -28.5t-35 -98.5v-190h242 v-154h-238v-813h-192zM1395 0v1423h192v-1423h-192z" />
</font>
</defs>
</svg>
