<?xml version="1.0" encoding="utf-8"?>
<!-- Generator: Adobe Illustrator 16.0.4, SVG Export Plug-In . SVG Version: 6.00 Build 0)  -->
<!DOCTYPE svg PUBLIC "-//W3C//DTD SVG 1.1//EN" "http://www.w3.org/Graphics/SVG/1.1/DTD/svg11.dtd">
<svg version="1.1" id="Layer_1" xmlns="http://www.w3.org/2000/svg" xmlns:xlink="http://www.w3.org/1999/xlink" x="0px" y="0px"
	 width="2274.229px" height="1227.123px" viewBox="0 0 2274.229 1227.123" enable-background="new 0 0 2274.229 1227.123"
	 xml:space="preserve">
<g id="uJRLMm.tif">
	<g>
		<path d="M1328.348,806.336c-118.861,35.903-238.215,70.249-355.039,111.29c0.52,1.863,1.632,3.613,1.159,4.623
			c-1.083,2.319-2.521,4.916-4.565,6.25c-4.305,2.808-11.206,0.428-15.631-5.131c-18.979,6.392-38.172,12.873-57.377,19.317
			c-12.308,4.131-24.632,8.205-36.944,12.311c-3.246,1.082-5.909,1.754-6.581,6.534c-0.667,4.736-6.291,5.872-9.619,3.293
			c-4.232-3.279-7.869-2.171-11.773-0.927c-24.432,7.793-48.814,15.727-73.226,23.584c-3.557,1.145-6.616,2.529-8.406,6.328
			c-2.117,4.495-5.421,6.059-10.644,3.675c-2.655-1.212-6.525-1.098-9.432-0.217c-27.393,8.308-54.723,16.821-81.981,25.553
			c-2.875,0.92-5.979,3.102-7.581,5.595c-2.951,4.593-6.727,5.773-10.987,3.492c-4.508-2.414-8.348-0.852-12.414,0.366
			c-55.125,16.513-110.156,33.341-165.388,49.492c-49.482,14.471-99.159,28.284-148.802,42.203
			c-14.072,3.945-28.32,7.267-42.505,10.802c-1.536,0.383-3.191,0.285-5.655,0.479c1.525-7.087,7.152-8.564,11.646-11.523
			c2.411,1.543,2.141,6.799,6.952,4.469c4.023-1.948,1.683-4.104,0.501-6.973c11.514-3.968,22.872-8.021,35.234-10.109
			c0,3.118,0,4.873,0,6.637c1.147,0,1.939,0.25,2.391-0.037c13.173-8.388,28.516-10.863,42.994-15.6
			c14.54-4.755,29.382-8.587,44.084-12.851c20.45-5.93,40.987-11.584,61.312-17.921c17.438-5.438,34.619-11.696,51.934-17.53
			c10.066-3.393,20.167-6.687,30.271-9.966c1.251-0.406,2.704-0.854,3.919-0.597c8.194,1.727,14.648-2.188,21.188-6.115
			c2.263-1.359,4.723-2.522,7.238-3.305c20.306-6.314,40.621-12.604,60.986-18.725c13.693-4.114,27.515-7.812,41.195-11.966
			c4.731-1.436,9.211-3.698,13.815-5.561c2.455-0.993,4.895-2.045,7.402-2.89c25.201-8.484,50.377-17.056,75.642-25.349
			c18.962-6.224,38.127-11.832,57.045-18.183c12.271-4.118,24.256-9.08,36.372-13.657c2.49-0.94,4.95-2.496,7.496-2.66
			c11.146-0.722,19.274-7.055,27.364-13.753c2.924-2.422,6.067-6.288,10.173-0.221c3.659-6.425,7.703-9.839,15.015-7.41
			c2.703,0.896,6.488-0.855,9.605-1.912c24.915-8.446,49.926-16.637,74.633-25.658c22.478-8.207,44.608-17.361,66.896-26.089
			c8.983-3.519,17.978-7.012,27.582-10.757c0.453-2.565,0.941-5.331,1.458-8.256c-3.104,0.302-5.609,0.546-8.437,0.819
			c0.467-1.098,0.541-1.856,0.912-2.055c4.161-2.205,8.043-3.364,13.224-1.884c3.421,0.979,7.893-1.719,12.448-2.917
			c-0.592,6.436-7.961,4.351-10.183,9.488c2.138,0,4.002,0.495,5.431-0.082c8.636-3.494,16.976-7.828,25.792-10.736
			c9.946-3.28,18.716-9.938,29.642-10.368c0.632-0.023,1.274-0.376,1.869-0.665c29.353-14.279,61.719-20.695,91.084-35.002
			c9.866-4.808,20.178-8.717,30.355-12.865c3.948-1.609,7.753-2.972,12.322-0.434c2.606,1.447,6.596,1.24,9.771,0.685
			c12.43-2.176,24.895-4.319,35.923-11.219c2.598-1.625,5.892-2.138,9.772-3.475c-1.631-2.508-2.775-4.341-3.992-6.124
			c-1.483-2.172-3.514-4.108-4.459-6.483c-3.786-9.515-0.498-14.882,9.906-16.489c3.827-9.881-5.355-13.526-10.416-20.607
			c3.033-3.513,5.658-7.88,9.441-10.684c11.463-8.488,25.521-9.622,40.824-14.412c-2.471,4.271-3.655,6.318-5.27,9.105
			c26.908-2.002,52.76-3.935,78.611-5.844c15.604-1.153,31.227-2.085,46.812-3.449c19.223-1.683,38.445-3.445,57.604-5.729
			c7.201-0.858,14.366-2.819,21.283-5.087c9.694-3.179,14.836-10.731,17.388-20.322c1.155-4.343,2.576-8.614,4.949-13.033
			c-5.474,16.347,8.647,21.867,16.208,30.762c1.035,1.219,3.706,1.534,5.588,1.462c10.29-0.396,20.576-0.947,30.852-1.638
			c8.951-0.601,17.879-1.55,26.829-2.154c3.873-0.262,7.777-0.044,12.229-0.044c-0.209-3.434-0.333-5.474-0.438-7.199
			c5.307,2.962,10.293,5.745,15.866,8.856c-0.967,1.528-2.479,3.915-4.142,6.542c-0.823-0.243-1.886-0.28-2.569-0.808
			c-3.081-2.373-6.286-2.832-10.249-2.474c-21.203,1.922-42.447,3.407-63.671,5.109c-2.541,0.204-5.051,0.808-7.801,1.263
			c-0.222,2.31-0.505,3.921-0.51,5.534c-0.021,8.909-2.038,12.311-9.998,14.867c-11.818,3.797-23.392,1.771-34.827-1.36
			c-0.007-0.804-0.012-1.606-0.018-2.411c6.049,0,12.143,0.458,18.131-0.139c5.2-0.519,10.579-1.571,15.287-3.697
			c2.331-1.052,4.699-5.099,4.612-7.71c-0.133-3.951-4.315-4.692-7.755-4.4c-10.935,0.932-21.832,2.286-32.771,3.163
			c-29.536,2.365-59.094,4.459-88.626,6.865c-38.154,3.11-76.3,6.335-114.432,9.707c-9.668,0.854-15.518,13.934-10.586,23.275
			c3.682,6.975,9.231,11.353,17.593,10.918c15.622-0.811,31.248-1.568,46.86-2.55c14.61-0.918,29.221-1.942,43.807-3.194
			c37.137-3.187,74.255-6.591,111.391-9.776c18.896-1.62,37.812-2.995,56.722-4.414c24.23-1.819,48.467-3.593,72.704-5.323
			c2.645-0.189,5.334,0.227,7.974,0.007c4.438-0.368,8.854-1.021,14.713-1.729c-5.542-6.915-9.956-11.201-17.87-8.226
			c-2.396,0.901-5.246,0.651-7.894,0.836c-17.591,1.226-35.18,2.461-52.773,3.6c-3.439,0.223-6.907,0.031-10.36,0.031
			c-0.11-0.723-0.222-1.445-0.332-2.169c1.229-0.729,2.383-1.891,3.697-2.116c8.794-1.517,17.591-3.096,26.447-4.144
			c9.569-1.131,19.207-1.688,28.812-2.536c1.654-0.146,3.291-0.503,4.938-0.731c4.172-0.579,6.428-2.711,5.462-8.093
			c8.153,8.18,17.729,6.381,26.923,6.104c4.754-0.143,8.406-2.027,7.852-6.981c4.738,0.618,9.426,1.7,14.125,1.761
			c16.948,0.214,33.902,0.084,50.884,0.084c-1.065-6.947-3.521-10.186-8.582-8.977c-9.429,2.252-17.542-2.029-26.216-3.631
			c-5.182-0.957-10.5-1.83-15.729-1.686c-4.95,0.138-9.675,1.44-14.566-1.145c-3.815-2.018-5.184,1.075-5.828,5.1
			c-5.345-2.988-10.701-5.224-16.418,1.148c-0.224-1.084-0.446-2.169-0.669-3.253c1.936-2.271,3.87-4.543,6.367-7.474
			c-3.154-7.483-6.426-15.243-9.695-23.003c0.683-0.334,1.365-0.667,2.048-1.001c5.257,4.714,8.055,11.183,10.613,17.626
			c2.689,6.773,3.769,7.549,10.751,7.205c5.597-0.275,11.228,0.194,16.845,0.288c3.168,0.053,6.339,0.01,9.089,0.01
			c3.511-10.252-9.625-9.611-9.797-18.938c2.979,1.92,4.727,2.89,6.293,4.094c2.598,2,4.859,5.537,7.649,5.979
			c8.35,1.323,17.097,2.916,25.304,1.734c13.852-1.994,27.657-2.891,41.561-2.589c8.969,0.193,17.911,1.39,26.881,1.714
			c3.635,0.132,7.982,1.508,10.012-4.067c0.531-1.461,4.686-1.604,8.07-2.622c0.405-4.2,0.851-8.815,1.399-14.511
			c2.381-0.783,5.875-1.543,8.481,2.022c8.239,11.275,19.96,10.412,31.73,9.308c12.563-1.182,25.146-2.267,37.646-3.947
			c5.476-0.737,10.688-3.525,16.16-4.152c5.38-0.616,11.014,1.041,16.401,0.461c24.497-2.633,48.898-6.297,73.438-8.348
			c11.043-0.923,17.708-6.594,23.212-14.803c1.239-1.85,1.635-5.242,0.839-7.318c-5.237-13.664-11.295-27.02-16.325-40.754
			c-4.963-13.553-12.396-25.657-20.383-37.454c-4.642-6.856-10.334-12.993-15.301-19.643c-4.938-6.612-9.562-13.461-14.321-20.206
			l-0.239,0.285c13.914,12.722,27.771,25.51,41.785,38.117c3.527,3.174,5.379,8.692,11.424,8.621
			c0.482-0.006,1.312,0.623,1.412,1.081c3.024,13.863,13.917,23.384,19.698,35.877c8.553,18.483,9.285,36.85,4.655,56.007
			c-0.354,1.463-1.831,2.652-2.804,3.99c-0.42-0.458-0.733-1.185-1.242-1.364c-1.027-0.365-2.159-0.434-3.248-0.623
			c-0.085,0.572-0.342,1.604-0.229,1.646c1.049,0.394,2.152,0.741,3.262,0.831c0.536,0.044,1.121-0.491,1.683-0.764
			c-0.747,10.128-7.281,17.068-14.02,23.348c-18.217,16.977-39.151,29.482-62.79,37.814c-29.283,10.319-59.549,14.342-90.258,15.021
			c-35.938,0.795-71.903,0.403-107.855,0.559c-12.586,0.055-25.209-0.396-37.745,0.431c-25.551,1.686-51.041,4.235-76.577,6.144
			c-24.572,1.837-49.169,3.354-73.762,4.938c-33.856,2.182-67.717,4.342-101.58,6.416c-14.613,0.896-29.243,1.528-43.862,2.341
			c-2.541,0.141-5.066,0.582-9.502,1.111c2.579,1.971,4.157,3.744,4.663,3.478c7.922-4.166,16.38-1.209,24.517-1.847
			c16.229-1.272,32.552-1.369,48.838-1.87c1.109-0.034,2.238,0.605,3.167,1.874c-11.173,0.736-22.344,1.521-33.521,2.197
			c-14.615,0.885-29.239,1.64-43.854,2.541c-7.972,0.492-15.926,1.288-23.9,1.709c-3.476,0.184-7.277,1.312-9.824-2.934
			c-0.469-0.779-5.167-0.505-5.842,0.576c-3.156,5.055-7.944,3.967-12.476,4.344c-7.881,0.655-15.748,1.473-25.948,2.441
			c5.595,4.856,9.351,8.118,13.09,11.364c-2.855,5.862-7.678,6.603-11.961,8.047c-5.028,1.697-10.201,2.977-15.205,4.739
			c-26.357,9.284-52.693,18.63-79.009,28.036c-6.243,2.231-12.372,4.781-18.555,7.187L1328.348,806.336z M1797.483,696.12
			c-0.43,0.948-0.857,1.896-1.286,2.844c3.194,1.877,6.18,4.485,9.629,5.479c7.336,2.111,25.628,0.613,31.582-2.299
			C1824.064,696.037,1810.559,697.533,1797.483,696.12z M1299.031,808.268c2.414-3.41,4.593-5.174,4.902-7.221
			c0.537-3.532-1.926-5.948-5.428-5.134c-2.073,0.481-5.385,3.25-5.16,4.414C1293.806,802.7,1296.28,804.683,1299.031,808.268z
			 M1631.212,665.612c-0.97,0.176-1.938,0.352-2.908,0.526c-1.136,3.131-2.271,6.264-3.406,9.395
			c0.538,0.52,1.077,1.039,1.615,1.559c2.571-1.442,5.952-2.353,7.395-4.541C1634.697,671.352,1632.217,667.996,1631.212,665.612z
			 M1378.293,742.161c0.401-0.379,0.802-0.757,1.203-1.136c-0.979-1.253-1.956-2.506-2.934-3.759
			c-0.597,0.605-1.192,1.212-1.789,1.817C1375.947,740.11,1377.12,741.136,1378.293,742.161z"/>
		<path d="M814.314,664.001c0.558-0.353,1.493-0.604,1.618-1.072c3.729-14.009,12.878-24.51,22.49-34.658
			c10.936-11.545,24.401-14.196,39.321-10.153c4.44,1.203,8.69,3.362,12.765,5.572c2.356,1.277,5.843,2.173,4.932,6.431
			c-0.185,0.861,1.085,2.336,2.031,3.09c10.565,8.408,15.001,20.865,21.785,32.882c14.114-2.913,28.554-5.893,42.748-8.822
			c0.688,1.515,1.313,2.229,1.154,2.641c-3.947,10.15-0.222,17.726,7.118,24.945c6.54,6.435,14.021,12.392,16.901,21.82
			c0.34,1.114,1.717,1.978,2.734,2.808c5.881,4.791,12.095,9.222,17.615,14.394c5.087,4.765,10.397,6.4,17.278,5.199
			c5.14-0.897,10.516-0.442,15.785-0.574c8.95-0.224,17.9-0.504,26.854-0.629c7.521-0.104,15.048-0.021,22.629,0.979
			c-21.382,5.287-43.646,4.211-65.969,9.392c10.614,16.104,21.276,29.682,43.168,25.169c-4.747,2.544-11.069,1.506-12.636,8.141
			c-0.148,0.637-3.096,1.004-4.678,0.847c-10.895-1.094-21.895-1.729-32.603-3.828c-5.585-1.096-10.645-4.868-16.688-7.793
			c-1.2,0.949-1.979,5.501-6.24,2.959c-4.532-2.704-9.229-5.136-13.754-7.854c-8.543-5.132-16.851-10.685-25.588-15.453
			c-3.984-2.175-8.673-3.396-13.193-4.177c-8.108-1.398-15.308-3.941-20.96-10.4c-2.779-3.178-6.572-5.47-10.131-8.342
			c-2.062,1.504-3.852,2.425-5.144,3.81c-19.846,21.256-45.162,27.885-73.199,28.502c-17.596,0.387-33.551-3.599-48.451-12.812
			c-9.412-5.819-13.855-14.998-17.538-24.694c-0.668-1.76,0.497-4.215,0.8-6.229c4.761,0.216,8.693,0.152,12.552,0.663
			c2.123,0.281,4.772,0.965,6.049,2.446c4.253,4.939,8.1,2.998,12.229,0.14c3.787-2.623,7.649-5.14,11.797-7.915
			c1.262-13.106-0.383-27.023,4.84-40.13c-0.106,0.956-0.212,1.913-0.287,2.915c-0.384,5.047-0.798,10.049-1.213,15.051
			c0.747,0.007,1.495,0.015,2.243,0.021C815.094,674.185,814.704,669.093,814.314,664.001z M857.207,621.992
			c0.008,0.17,0.016,0.34,0.023,0.51c5.336,0,10.671,0,16.007,0c-0.008-0.17-0.014-0.34-0.021-0.51
			C867.881,621.992,862.544,621.992,857.207,621.992z M820.792,703.093c0.538-0.254,1.076-0.508,1.614-0.762
			c-1.287-2.688-2.574-5.374-3.861-8.062c-0.505,0.237-1.011,0.477-1.516,0.715C818.283,697.688,819.538,700.39,820.792,703.093z
			 M920.724,675.337c-0.413,0.064-0.827,0.129-1.239,0.192c0.196,1.864,0.396,3.729,0.594,5.595
			c0.215-0.021,0.431-0.041,0.646-0.062C920.724,679.154,920.724,677.245,920.724,675.337z"/>
		<path d="M892.801,541.809c1.607-4.339,3.948-5.943,9.067-4.562c7.325,1.978,14.963,2.972,22.53,3.834
			c10.485,1.195,15.449,5.599,17.951,16.885c1.316,5.937-3.662,15.195-10.477,18.657c-3.832,1.947-8.107,3.007-12.01,4.836
			c-5.353,2.508-10.538,5.368-15.683,8.019c0.634,12.079,8.568,20.217,12.206,30.653c-6.103,5.06-12.673,4.912-19.406,2.634
			c-2.803-0.946-5.31-2.744-7.99-4.075c-13.579-6.743-28.116-7.439-42.795-6.202c-5.385,0.454-8.46-1.164-11.379-5.719
			c-30.354-47.354-60.93-94.562-91.421-141.827c-0.53-0.822-0.784-1.822-1.152-2.705c10.92-14.158,30.964-10.021,50.585,8.973
			c-1.491,1.405-2.955,2.784-5.253,4.949c3.104,7.905,7.937,15.568,15.379,21.443c3.136,2.477,6.392,4.858,10.897,3.196
			c4.02-1.48,6.51,1.129,8.062,4.117c2.589,4.988,4.545,10.3,6.904,15.413c3.466,7.509,6.855,15.064,10.693,22.384
			c1.291,2.462,3.85,4.259,6.206,6.762c5.401-4.852,4.304-11.28,6.508-16.336c0.12-0.276-1.755-1.426-3.209-2.566
			c-1.72,3.067-3.106,5.544-5.467,9.753c-2.374-4.067-4.343-6.883-5.747-9.955c-3.735-8.173-7.146-16.493-10.841-24.687
			c-4.261-9.454-9.779-17.135-21.451-18.609c-3.771-0.478-7.129-4.248-11.078-6.77c2.575-5.085,5.273-7.159,9.56-3.604
			c9.205,7.639,18.916,14.818,27.236,23.343c14.85,15.214,29.497,30.633,41.303,48.586c6.673,10.146,15.155,19.104,23.543,28.136
			c-3.447-10.98-10.922-19.556-18.791-29.7c3.312,1.002,5.087,1.539,7.059,2.137c2.826-2.482,5.735-5.038,8.656-7.606
			c11.942,5.627,16.523,6.069,22.521,1.659C907.704,541.184,900.366,540.165,892.801,541.809z M855.427,545.886
			c-4.011,9.291,4.209,22.467-7.639,30.972c8.114,6.479,9.114-3.686,14.677-5.588c0.909,4.769,2.93,9.12,2.118,12.859
			c-0.82,3.786-4.438,6.968-6.575,10.045c10.564-1.957,13.624-6.286,10.867-16.852c-0.998-3.821-2.604-7.512-4.196-11.146
			C861.683,559.34,858.494,552.586,855.427,545.886z M803.612,504.214c4.719,9.007,4.719,9.007,11.011,6.299
			C810.668,508.25,807.14,506.232,803.612,504.214z M813.007,524.236c-0.329,0.636-0.658,1.271-0.987,1.908
			c2.399,3.053,4.675,6.347,12.223,3.666C819.352,527.385,816.18,525.811,813.007,524.236z M832.433,545.724
			c-3.17-0.368-6.34-0.737-11.059-1.289C825.399,549.536,828.348,551.466,832.433,545.724z M917.062,572.354
			c0.127,0.57,0.254,1.143,0.381,1.713c1.597-0.405,3.193-0.812,4.791-1.217c-0.106-0.477-0.212-0.951-0.318-1.428
			C920.299,571.732,918.681,572.043,917.062,572.354z"/>
		<path d="M2055.76,492.819c-12.664,8.523-25.558,16.733-37.909,25.69c-7.635,5.536-15.374,10.403-24.174,12.501
			c-1.612-2.769-3.139-5.384-4.194-7.195c-6.102,3.354-10.815,6.881-16.116,8.703c-25.149,8.653-50.36,17.155-75.761,25.031
			c-9.415,2.919-11.484,3.851-15.866-7.241c-2.933-7.425-6.285-14.688-9.086-22.158c-3.132-8.353-2.226-10.151,6.04-13.677
			c15.912-6.786,31.877-13.446,47.757-20.305c4.257-1.839,8.183-4.453,12.461-6.229c2.633-1.094,4.384-1.723,4.468-5.325
			c0.043-1.875,2.914-4.06,4.955-5.444c7.429-5.045,15.332-9.43,22.502-14.805c5.783-4.336,10.768-9.74,16.73-15.249
			c2.056,1.111,4.901,2.164,7.162,3.955c14.908,11.812,30.856,21.87,48.059,30.055c5.303,2.522,10.744,5.612,12.726,11.989
			C2055.521,493.104,2055.76,492.819,2055.76,492.819z"/>
		<path d="M827.624,482.821c-1.876-1.298-3.876-2.448-5.607-3.916c-12.173-10.325-24.146-20.891-36.463-31.041
			c-14.978-12.347-32.018-17.27-51.12-12.158c-6.884,1.842-12.574-0.834-18.075-3.618c-6.934-3.51-12.908-2.827-19.848,0.278
			c-50.772,22.731-101.716,45.089-152.581,67.619c-26.183,11.598-52.312,23.313-78.477,34.957c-1.758,0.781-3.589,1.4-5.765,1.241
			c97.568-47.724,196.847-91.77,296.276-136.817c-5.037-8.732-12.229-5.411-17.895-6.344c-6.08-1.001-12.377-0.678-19.174-0.956
			c3.183-4.312,5.686-7.704,8.341-11.303c-8.318-6.649-13.826,3.523-20.837,0.35c-0.739,4.475-1.354,8.185-1.957,11.836
			c-1.074-0.162-1.621-0.146-1.651-0.263c-3.398-13.399-0.63-26.235,10.739-31.323c7.812-3.497,16.219-5.791,24.52-8.025
			c6.3-1.695,11.934,0.582,16.236,5.4c3.98,4.457,7.699,9.156,11.37,13.876c2.02,2.595,3.702,5.45,6.019,8.907
			c3.979-1.305,7.759-2.33,11.376-3.764c63.804-25.283,127.574-50.645,191.399-75.868c3.699-1.462,7.252-4.858,13.099-2.136
			c-7.731,6.787-16.975,8.619-24.982,12.657c-8.62,4.346-17.609,7.959-26.435,11.897c-8.52,3.802-17.046,7.59-25.551,11.425
			c-8.809,3.972-17.59,8.005-26.394,11.989c-8.499,3.846-17.02,7.646-25.517,11.496c-8.495,3.85-16.972,7.739-25.459,11.608
			c-8.793,4.007-17.595,7.996-26.38,12.019c-8.403,3.847-16.791,7.726-25.64,11.801c4.314,11.593,11.778,20.246,18.669,28.979
			c25.794,32.699,52.129,64.971,78.24,97.42c0.544,0.676,0.825,1.562,0.286,3.269c-8.379-7.731-17.726-14.659-24.944-23.354
			c-18.086-21.777-35.119-44.427-52.772-66.568c-5.08-6.372-10.832-12.212-16.418-18.453c-5.26,4.786-1.925,7.451,0.578,10.618
			c13.425,16.994,26.729,34.086,39.985,51.212c1.175,1.518,1.725,3.519,2.564,5.294L827.624,482.821z M740.697,356.412
			c-1.396,1.731-3.169,3.035-2.98,3.918c0.258,1.203,1.935,2.742,3.152,2.891c0.929,0.113,2.943-1.724,2.935-2.677
			C743.791,359.381,742.165,358.234,740.697,356.412z"/>
		<path d="M1269.98,506.335c-8.116,1.553-16.438,3.457-24.858,4.695c-22.674,3.335-45.39,6.396-68.092,9.547
			c-9.244,1.283-11.418-0.604-11.492-9.863c-0.065-8.237,2.283-15.917,6.997-22.471c5.769-8.021,11.712-16.113,18.76-22.96
			c7.641-7.422,17.676-10.398,28.489-9.618c24.298,1.754,46.872,22.516,50.661,46.55
			C1270.591,503.141,1270.245,504.144,1269.98,506.335z"/>
		<path d="M1875.498,563.364c-3.591,1.924-6.306,3.688-9.247,4.907c-22.274,9.236-45.912,13.435-69.319,18.428
			c-5.185,1.105-7.475-0.963-7.157-6.524c0.624-10.959,1.83-21.883,2.642-32.833c0.352-4.722,2.848-6.977,7.273-8.142
			c16.727-4.405,33.383-9.081,50.098-13.534c7.748-2.064,10.041-1.012,13.162,6.409
			C1867.179,542.133,1871.089,552.324,1875.498,563.364z"/>
		<path d="M1885.5,421.168c9.036-6.571,18.181-12.999,27.09-19.739c37.951-28.714,75.794-57.57,113.768-86.256
			c8.959-6.769,17.028-14.985,28.521-17.909c1.751-0.445,2.978-3.071,4.379-4.744c3.601-4.294,6.932-8.851,10.887-12.781
			c1.091-1.084,4.972-1.197,5.832-0.221c1.146,1.298,1.574,4.888,0.593,6.113c-3.719,4.635-7.774,9.142-12.338,12.933
			c-46.843,38.919-93.92,77.554-140.63,116.628c-7.965,6.661-15.913,10.376-26.31,8.318c-3.54-0.7-7.271-0.434-10.915-0.607
			C1886.084,422.324,1885.792,421.746,1885.5,421.168z"/>
		<path d="M2048.334,245.443c-6.735-8.188-12.733-17.16-20.386-24.376c-10.609-10.004-15.404-21.923-16.859-35.98
			c-0.84-8.116-2.756-16.122-4.176-24.109c9.543-1.848,10.1-1.583,12.24,3.822c9.194,23.223,18.444,46.424,27.646,69.646
			c1.312,3.312,2.455,6.688,3.677,10.037C2049.762,244.803,2049.048,245.123,2048.334,245.443z"/>
		<path d="M1631.825,618.271c-4.445,4.326-8.21,7.94-11.91,11.618c-1.412,1.403-2.556,3.091-4.032,4.412
			c-6.388,5.72-12.579,4.617-15.531-3.484c-2.139-5.866-3.237-12.228-3.962-18.464c-0.88-7.587-0.769-15.283-1.312-22.916
			c-0.234-3.286-0.628-6.67-1.664-9.771c-2.743-8.197-8.443-11.576-16.923-10.544c-21.19,2.578-30.709-6.186-30.249-29.235
			c1.447,2.044,2.369,3.151,3.079,4.381c5.816,10.078,13.505,15.442,26.123,13.924c13.829-1.664,19.797,3.303,21.895,17.112
			c1.392,9.156,1.037,18.567,1.698,27.849c0.447,6.273,0.857,12.607,2.08,18.757c1.785,8.97,7.3,10.704,14.215,4.766
			c3.021-2.595,5.634-5.662,8.535-8.406C1626.604,615.68,1629.426,614.429,1631.825,618.271z"/>
		<path d="M121.539,1057.206c2.746,1.11,5.636,1.957,8.216,3.37c35.036,19.187,70.04,38.432,105.019,57.723
			c4.471,2.466,9.335,4.577,12.448,9.754c-4.646,2.915-7.465-0.383-10.218-1.947c-21.129-12.014-42.182-24.16-63.175-36.409
			c-15.243-8.895-30.395-17.945-45.494-27.081c-2.434-1.474-4.379-3.751-6.56-5.65
			C121.766,1056.971,121.539,1057.206,121.539,1057.206z"/>
		<path d="M1467.015,545.364c0.743-1.003,1.485-2.007,2.614-3.531c-2.562-0.268-4.622-0.483-6.523-0.682
			c-0.746-3.279,11.44-5.606,23.623-4.312c-5.344,1.884-8.734,3.08-13.636,4.808c3.202,1.05,4.858,1.592,7.198,2.358
			c-2.409,5.592,2.338,14.606-10.593,15.98c2.957,1.098,4.271,1.586,6.339,2.354c-1.373,2.523-2.703,4.97-4.342,7.981
			c2.044,0.797,3.99,1.555,5.941,2.314c-0.252,0.668-0.563,1.763-0.67,1.742c-6.896-1.28-13.496,0.606-20.451,1.268
			c2.728-1.445,5.452-2.892,8.02-4.253c-0.756-6.588-4.533-0.396-6.985-2.562c7.604-4.274,3.687-12.053,5.783-18.173
			c0.822-2.403,0.041-5.557,3.992-5.604c0.144,1.208,0.281,2.417,0.508,4.389c2.875-0.942,5.411-1.774,7.948-2.605
			c-0.097-0.491-0.19-0.98-0.286-1.472C1472.668,545.364,1469.842,545.364,1467.015,545.364z"/>
		<path d="M1321.53,577.854c0.008-1.978-0.205-3.984,0.062-5.926c1.293-9.341,4.363-11.212,14.562-9.193
			c0.752,0.148,1.621-0.3,2.771-0.541c-0.734,4.81-1.456,9.521-2.167,14.168c4.604,2.062,7.161,1.08,8.257-2.984
			c0.857-3.183,1.814-6.384,2.194-9.64c0.486-4.159,3.221-4.134,6.795-4.12c0.515,2.482,0.74,5.106,1.694,7.432
			c0.384,0.936,2.365,1.213,3.621,1.789l-0.174-0.299c0.699,3.569,1.221,7.09-2.967,10.343c-1.394-3.528-2.55-6.456-3.974-10.061
			c-1.282,3.485-2.367,6.435-3.413,9.274c-2.463,0.654-4.688,1.277-6.93,1.835c-6.899,1.719-7.394,1.23-6.848-6.562
			c0.045-0.638-0.04-1.307-0.201-1.926c-0.065-0.251-0.498-0.407-0.799-0.633c-5.274,1.275-1.668,6.149-3.462,9.45
			c-1.048-1.399-1.759-2.351-3.027-4.049c-1.221,1.399-2.311,2.649-3.874,4.443c-0.778-1.034-1.557-2.067-2.333-3.102
			L1321.53,577.854z"/>
		<path d="M1285.38,569.222c-2.686,1.018-5.371,2.033-9.712,3.677c2.922,1.612,4.392,2.426,6.425,3.549
			c-3.41,2.7-12.521,4.201-1.816,10.837c-3.005,0-4.562,0-6.61,0c-0.277-2.793-0.546-5.506-0.814-8.219
			c-0.693,0.009-1.388,0.019-2.082,0.027c-0.154,2.776-0.31,5.554-0.549,9.835c-1.646-2.644-2.611-4.193-3.706-5.951
			c-0.769,1.14-1.542,2.286-2.647,3.929c-0.228-2.345-0.405-4.19-0.649-6.723c-2.418,0.41-4.794,0.813-7.108,1.206
			c-2.289-3.668,0.61-10.737,4.865-11.35c7.264-1.045,14.588-1.675,21.902-2.297c0.666-0.057,1.443,1.204,2.174,1.848
			C1285.054,569.585,1285.38,569.222,1285.38,569.222z"/>
		<path d="M1219.741,591.731c-1.845,1.097-3.688,2.193-5.976,3.554c-1.156-3.057-2.062-5.444-3.007-7.941
			c-0.558,0.318-1.317,0.506-1.377,0.823c-0.86,4.696-2.118,8.807-8.774,6.24c-0.328-1.364-0.793-3.298-1.445-6.013
			c-1.817,1.123-3.562,1.594-3.758,2.426c-0.935,4.004-3.324,6.512-7.207,7.104c-1.438,0.22-3.116-1.145-4.358-3.507
			c2.202,0.36,4.404,0.721,7.49,1.226c1.084-3.408,2.139-6.729,3.353-10.551c3.233,0.197,6.622,0.853,8.473-3.774
			c0.895-2.239,4.732-3.303,8.294-5.567c1.003,7.64,4.974,11.809,8.53,16.235L1219.741,591.731z"/>
		<path d="M1439.527,538.316c7.332,5.212,7.332,5.212,10.476-0.755c1.639,1.89,3.278,3.777,5.539,6.384
			c-4.004,1.112-7.654,2.129-11.596,3.226c-3.888,8.712-3.39,18.626-4.198,28.193c-1.391-0.156-2.781-0.313-4.172-0.472
			c5.872-7.553-5.561-11.825-1.924-19.362c1.465-0.406,3.24-0.898,4.604-1.275c-0.874-2.516-2.568-5.039-2.354-7.389
			C1436.149,544.132,1438.069,541.549,1439.527,538.316z"/>
		<path d="M1504.888,553.976c-3.485-1.679,0.076-8.729-6.846-8.346c-0.833,2.265-1.699,4.619-2.621,7.126
			c-0.722-0.398-1.446-0.557-1.545-0.895c-0.71-2.445-1.294-4.927-2.127-8.224c2.267-3.521,5.002-7.771,7.738-12.021
			c0.396,0.207,0.792,0.413,1.188,0.619c-0.897,2.969-1.796,5.937-2.786,9.211c5.756-1.792,5.756-1.792,9.111-11.309
			c0.371,1.701,0.637,2.918,1.073,4.919c2.152-1.079,4.132-2.069,7.298-3.655c-1.939,6.955-10.827,8.026-9.279,16.659
			c2.812-1.365,5.079-2.469,7.662-3.725c0,0.941,0.105,1.84-0.018,2.706c-0.73,5.14-6.16,4.339-8.885,6.973L1504.888,553.976z"/>
		<path d="M1028.337,643.596c3.939,11.349,4.368,21.236,4.278,31.755c-5.91-0.085-7.025-3.372-7.092-6.665
			C1025.368,660.94,1020.661,652.716,1028.337,643.596z"/>
		<path d="M1059.657,672.562c-8.376-4.759-6.229-12.954-7.115-20.004c-0.465-3.683-1.229-8.144,5.44-10.316
			C1059.643,652.515,1061.354,662.235,1059.657,672.562z"/>
		<path d="M1000.181,647.977c4.061,9.467,5.477,19.193,5.111,31.515c-3.15-2.354-5.71-3.253-6.073-4.702
			C997.003,665.939,995.077,656.963,1000.181,647.977z"/>
		<path d="M759.887,682.707c7.312-2.598,10.829,0.834,14.269,6.009c-2.318,2.672-4.364,5.591-6.966,7.879
			c-2.897,2.549-6.655,1.166-7.19-2.716C759.483,690.153,759.887,686.301,759.887,682.707z"/>
		<path d="M1082.995,668.955c-5.604-5.38-7.094-15.771-3.849-26.854C1085.72,646.974,1087.38,658.562,1082.995,668.955z"/>
		<path d="M1422.398,562.085c-2.217,3.099-4.248,5.941-6.891,9.637c3.753,1.066,5.848,1.662,9.235,2.625
			c-6.595,4.1-12.745,3.52-19.315,2.265c1.477-0.772,2.908-1.646,4.437-2.299c5.809-2.488,6.006-4.755,0.874-9.203
			c-0.955-0.827-1.54-2.081-2.809-3.854c2.06-2.536,4.16-5.125,6.263-7.713c0.481,0.309,0.965,0.618,1.446,0.927
			c-1.39,2.291-2.779,4.582-4.623,7.617C1415.612,562.085,1419.067,562.085,1422.398,562.085z"/>
		<path d="M1798.608,608.854c5.02-5.802,17.965-8.567,28.422-7.048c-0.378,1.217-0.477,3.162-1.122,3.366
			C1817.538,607.809,1809.058,609.914,1798.608,608.854z"/>
		<path d="M1607.657,733.485c16.946-0.839,33.895-1.679,50.843-2.518c0.025,0.527,0.052,1.057,0.077,1.583
			c-16.938,0.982-33.877,1.965-50.815,2.947C1607.727,734.828,1607.691,734.157,1607.657,733.485z"/>
		<path d="M1504.854,554.018c-0.748,0.354-1.498,0.705-4.205,1.979c4.885,0.833,7.832,1.336,10.78,1.838
			c0.12,0.472,0.24,0.943,0.36,1.415c-3.197,0.882-6.396,1.764-10.104,2.787c-0.945,2.776-1.982,5.821-3.672,10.773
			c-0.421-4.483-0.655-6.985-0.952-10.139c-2.688,0-5.442,0-8.198,0c-0.146-0.497-0.294-0.994-0.441-1.491
			c5.484-2.396,10.969-4.796,16.459-7.198C1504.888,553.976,1504.854,554.018,1504.854,554.018z"/>
		<path d="M1321.321,577.555c-0.044,0.979,0.034,1.983-0.175,2.926c-0.131,0.586-0.695,1.074-1.272,1.904
			c-3.156,0.494-5.979-6.994-10.716-1.349c2.343-5.822,4.687-11.645,7.894-19.612c1.897,6.961,3.186,11.687,4.477,16.42
			C1321.53,577.854,1321.321,577.555,1321.321,577.555z"/>
		<path d="M1610.393,590.358c4.365,10.969,4.034,11.956-4.56,15.302C1602.357,596.905,1602.638,595.851,1610.393,590.358z"/>
		<path d="M684.51,401.564c-0.212-6.58,0.896-11.71,5.087-16.167C696.046,395.351,694.818,399.699,684.51,401.564z"/>
		<path d="M1826.756,612.559c-10.834,1.729-21.668,3.459-33.408,5.334c0.754-2.327,0.933-3.908,1.332-3.968
			c10.603-1.541,21.227-2.925,31.848-4.336C1826.604,610.579,1826.68,611.568,1826.756,612.559z"/>
		<path d="M1359.321,568.837c0.139-1.981,0.211-3.973,0.442-5.944c0.112-0.952,0.525-1.869,0.934-3.242
			c3.726-1.093,7.539-2.21,11.353-3.328c0.171,0.447,0.343,0.895,0.513,1.341c-2.439,1.619-4.881,3.239-8.339,5.533
			c2.986,1.1,4.667,1.718,6.469,2.381c-10.099,6.115-9.354,4.96-2.564,11.366c-1.894,0.258-3.478,0.474-5.651,0.77
			c-1.153-3.18-2.237-6.164-3.323-9.161C1359.146,568.538,1359.321,568.837,1359.321,568.837z"/>
		<path d="M1575.929,594.929c4.141,9.789,3.664,11.201-4.838,14.38C1568.327,599.142,1568.466,598.73,1575.929,594.929z"/>
		<path d="M1502.474,616.526c-1.808-6.143-1.82-11.589,4.726-15.068C1511.749,611.224,1511.184,613.104,1502.474,616.526z"/>
		<path d="M1541.205,598.688c3.38,10.588,3.257,10.946-4.604,14.811C1533.822,604.62,1533.822,604.62,1541.205,598.688z"/>
		<path d="M1406.881,625.952c-3.314-6.5-0.614-10.654,5.19-13.828C1414.168,624.169,1414.168,624.169,1406.881,625.952z"/>
		<path d="M1428.36,546.142c-0.306,1.246-0.608,2.493-0.984,4.033c-6.51-1.823-12.633-1.677-17.968,2.868
			c0.459-3.64,1.372-2.669,7.535-8.46c5.097-4.791,7.022,5.456,10.771-1.791C1427.93,543.909,1428.145,545.025,1428.36,546.142z"/>
		<path d="M1438.375,623.257c-2.657-8.042-2.657-8.042,4.507-13.771C1446.036,619.879,1445.839,620.48,1438.375,623.257z"/>
		<path d="M1308.631,565.333c-4.663,2.473-7.134,3.782-9.988,5.295c1.916,3.618,8.752,2.588,6.679,8.557
			c-1.526,4.395-3.871,6.744-10.29,5.482c3.394-2.054,5.771-3.493,8.898-5.387c-2.769-3.019-9.001-3.158-6.63-9.206
			C1299.131,565.405,1302.124,564.438,1308.631,565.333z"/>
		<path d="M1818.609,730.23c-0.728,6.904-1.226,11.628-1.82,17.287C1810.855,738.83,1810.896,735.829,1818.609,730.23z"/>
		<path d="M1219.979,591.985c-1.686-6.835,3.591-11.142,4.481-17.04c0.709,0.171,1.418,0.341,2.128,0.512c0,5,0,10,0,14.295
			c-2.409,0.679-4.647,1.309-6.867,1.959C1219.741,591.731,1219.979,591.985,1219.979,591.985z"/>
		<path d="M1104.424,662.292c-0.531-7.061-0.943-12.532-1.461-19.41C1111.505,651.15,1111.586,652.171,1104.424,662.292z"/>
		<path d="M1346.466,632.904c-3.42-8.582-3.42-8.582,4.166-12.912C1350.658,624.821,1354.026,629.854,1346.466,632.904z"/>
		<path d="M1323.172,621.958c-0.836,5.405,2.725,10.463-3.417,13.233C1314.383,627.026,1314.4,626.936,1323.172,621.958z"/>
		<path d="M1474.907,606.461c2.706,10.456,2.706,10.456-4.729,12.808C1467.65,613.852,1469.192,609.818,1474.907,606.461z"/>
		<path d="M1375.384,561.413c0.479,0.453,0.894,1.021,1.448,1.342c3.002,1.729,8.677,0.947,6.727,7.261
			c-1.602,5.184-5.053,7.073-10.754,5.031c2.856-1.489,5.715-2.978,10.349-5.394c-3.486-1.319-5.509-1.741-7.134-2.784
			c-2.129-1.366-3.557-3.248-0.401-5.237L1375.384,561.413z"/>
		<path d="M1296.801,624.681c0.279,3.722,0.812,6.688,0.567,9.589c-0.096,1.139-1.884,2.906-2.979,2.968
			c-1.052,0.059-2.624-1.513-3.24-2.733C1288.64,629.544,1292.413,627.431,1296.801,624.681z"/>
		<path d="M1445.13,551.433c1.994-0.447,3.479-0.781,4.826-1.085c0.539,1.06,1.067,1.613,1.066,2.166
			c-0.019,6.147-3.108,12.234-0.339,18.51c0.142,0.317-1.938,1.616-3.722,3.056C1445.427,565.917,1450.642,558.52,1445.13,551.433z"
			/>
		<path d="M1866.613,726.64c0.518,4.4,1.503,8.812,1.41,13.198c-0.079,3.704-2.868,3.771-6.16,2.277
			c1.078-5.172,2.152-10.33,3.229-15.487C1865.6,726.632,1866.105,726.636,1866.613,726.64z"/>
		<path d="M1560.993,586.67c-6.962,2.034-10.648-2.153-14.539-8.938C1552.146,581.232,1556.57,583.951,1560.993,586.67z"/>
		<path d="M1262.101,640.763c0.304-4.926-2.842-9.963,4.587-10.477C1270.092,637.669,1270.092,637.669,1262.101,640.763z"/>
		<path d="M1380.552,616.071c1.634,10.73,1.634,10.73-4.149,13.22C1370.812,623.22,1376.653,620.355,1380.552,616.071z"/>
		<path d="M1091.911,764.13c-4.955,0-9.911,0-15.601,0C1082.243,761.113,1082.243,761.113,1091.911,764.13z"/>
		<path d="M1846.113,719.942c10.192,0,20.388,0,30.581,0c0.007,0.189,0.014,0.381,0.02,0.569c-10.079,0-20.157,0-30.235,0
			C1846.355,720.323,1846.234,720.133,1846.113,719.942z"/>
		<path d="M1291.396,583.305c-0.262-1.549-0.382-4.405-0.803-4.451c-6.631-0.705-5.187-5.539-5.21-9.637
			c-0.005,0.005-0.331,0.368-0.336,0.374c2.993-1.366,5.992-2.737,8.991-4.106c0.351,0.646,0.702,1.295,1.053,1.942
			c-2.625,1.555-5.25,3.106-8.26,4.89c8.139,4.949,8.139,4.949,4.368,10.78L1291.396,583.305z"/>
		<path d="M1129.398,644.116c8.248,5.289,8.318,6.585,1.283,10.805C1130.279,651.521,1129.939,648.666,1129.398,644.116z"/>
		<path d="M1709.446,623.626c4.961-3.942,8.165-4.58,12.407-1.71C1718.533,626.094,1715.079,624.762,1709.446,623.626z"/>
		<path d="M1123.396,872.038c3.812-1.266,7.627-2.531,13.138-4.36c-3.425,8.401-8.537,6.185-12.824,6.379
			C1123.604,873.384,1123.5,872.711,1123.396,872.038z"/>
		<path d="M1552.04,606.704c3.958,2.187,7.916,4.372,12.072,6.668C1557.95,614.001,1557.95,614.001,1552.04,606.704z"/>
		<path d="M1575.542,638.178c-6.687,3.001-10.672,2.703-16.051-1.992C1565.608,636.944,1569.648,637.446,1575.542,638.178z"/>
		<path d="M1328.146,806.529c2.334,3.029,5.31,6.056-0.034,9.636c-3.693-3.606-1.164-6.685,0.204-9.799
			C1328.348,806.336,1328.146,806.529,1328.146,806.529z"/>
		<path d="M1161.864,650.588c-3.589-3.958-3.589-3.958,0-7.867C1161.864,645.99,1161.864,648.289,1161.864,650.588z"/>
		<path d="M1710.417,728.104c4.803,0,9.604,0,14.406,0c-0.002,0.155-0.004,0.312-0.006,0.468c-4.894,0-9.784,0-14.677,0
			C1710.233,728.414,1710.325,728.259,1710.417,728.104z"/>
		<path d="M1690.386,730.685c-4.825,0-9.65,0-14.477,0c-0.004-0.242-0.009-0.485-0.013-0.729c4.877,0,9.754,0,14.631,0
			C1690.48,730.198,1690.433,730.441,1690.386,730.685z"/>
		<path d="M1762.724,726.751c-4.245,0-8.493,0-12.739,0c-0.017-0.16-0.03-0.321-0.047-0.482c4.131,0,8.26,0,12.389,0
			C1762.458,726.43,1762.591,726.591,1762.724,726.751z"/>
		<path d="M1231.837,583.615c0.803-1.366,1.605-2.732,2.739-4.661c1.768,0.522,3.821,1.131,5.874,1.739
			c0.051,0.652,0.101,1.307,0.149,1.961c-2.928,0.315-5.855,0.632-8.784,0.947L1231.837,583.615z"/>
		<path d="M1246.92,587.318c-0.656-5.916-1.062-9.569-1.521-13.716C1250.436,576.966,1251.256,580.61,1246.92,587.318z"/>
		<path d="M1074.143,849.423c3.754-1.472,5.366-2.104,6.979-2.737c0.266,0.403,0.53,0.807,0.796,1.209
			c-0.945,0.83-1.775,1.93-2.875,2.397C1078.311,850.604,1077.193,850.018,1074.143,849.423z"/>
		<path d="M1375.617,561.632c-0.066-6.281,4.024-6.51,9.221-4.992c-3.154,1.587-6.311,3.175-9.459,4.768
			C1375.384,561.413,1375.617,561.632,1375.617,561.632z"/>
		<path d="M1231.814,583.604c2.08,2.581,4.159,5.163,6.479,8.043c-2.832,1.854-5.3,1.979-6.302-2.15
			c-0.451-1.859-0.125-3.908-0.152-5.876C1231.837,583.615,1231.814,583.604,1231.814,583.604z"/>
		<path d="M1983.991,548.862c1.552,1.255,3.104,2.511,6.521,5.273c-3.471-0.589-4.896-0.499-5.911-1.103
			c-0.896-0.533-1.335-1.838-1.976-2.803C1983.081,549.775,1983.536,549.319,1983.991,548.862z"/>
		<path d="M2039.129,527.143c-0.531-1.664-1.062-3.328-1.593-4.992c0.883-0.22,2.444-0.786,2.54-0.602
			c0.745,1.451,1.208,3.047,1.759,4.6C2040.933,526.479,2040.03,526.811,2039.129,527.143z"/>
		<path d="M1291.201,583.097c-0.607,5.108-3.973,3.39-7.641,3.615c2.128-4.411,5.277-3.092,7.837-3.406
			C1291.396,583.305,1291.201,583.097,1291.201,583.097z"/>
		<path d="M111.612,1051.099c3.304,2.04,6.607,4.081,9.919,6.114c0.008-0.007,0.235-0.242,0.244-0.249
			c-4.357-0.319-8.054-1.726-9.934-6.098L111.612,1051.099z"/>
		<path d="M111.841,1050.866c-2.873-0.908-5.745-1.816-8.617-2.726c0.378-0.738,0.756-1.479,1.134-2.219
			c2.412,1.731,4.824,3.463,7.245,5.186C111.612,1051.099,111.841,1050.866,111.841,1050.866z"/>
		<path d="M1817.27,721.543c1.841,0.203,3.682,0.406,5.521,0.61c-1.725,0.305-3.449,0.608-5.174,0.915
			C1817.501,722.56,1817.385,722.052,1817.27,721.543z"/>
		<path d="M888.672,531.892c-1.211-0.733-2.422-1.469-3.633-2.202c0.229-0.39,0.459-0.778,0.689-1.167
			c1.223,0.715,2.445,1.429,3.67,2.144C889.156,531.074,888.914,531.482,888.672,531.892z"/>
		<path d="M827.385,483.062c1.565,1.617,3.131,3.234,4.696,4.854c-0.604,0.372-1.208,0.744-1.812,1.115
			c-0.886-2.064-1.771-4.13-2.65-6.202C827.624,482.821,827.385,483.062,827.385,483.062z"/>
		<path d="M451.418,540.886c-1.688,0.809-3.375,1.616-5.062,2.424c-0.224-0.405-0.445-0.812-0.669-1.221
			c1.554-0.904,3.106-1.809,4.66-2.714C450.705,539.879,451.062,540.382,451.418,540.886z"/>
		<path d="M1784.968,724.867c-1.272,0-2.546,0-3.818,0c-0.031-0.275-0.063-0.551-0.096-0.825c1.292-0.113,2.583-0.226,3.875-0.338
			C1784.941,724.092,1784.955,724.479,1784.968,724.867z"/>
		<path d="M1423.73,560.105c-1.516-1.688-3.029-3.375-4.545-5.063c0.585-0.683,1.17-1.365,1.756-2.048
			c1.754,1.403,3.507,2.808,5.26,4.212C1425.378,558.173,1424.555,559.139,1423.73,560.105z"/>
		<path fill="#FFFFFF" d="M1797.483,696.12c13.074,1.413,26.582-0.083,39.925,6.023c-5.954,2.912-24.246,4.41-31.582,2.299
			c-3.449-0.993-6.434-3.603-9.629-5.479C1796.626,698.016,1797.055,697.068,1797.483,696.12z"/>
		<path fill="#FFFFFF" d="M1299.031,808.268c-2.751-3.585-5.227-5.566-5.686-7.939c-0.225-1.164,3.087-3.932,5.16-4.414
			c3.502-0.814,5.965,1.602,5.428,5.134C1303.624,803.094,1301.445,804.856,1299.031,808.268z"/>
		<path fill="#FFFFFF" d="M1631.212,665.612c1.005,2.384,3.485,5.738,2.694,6.938c-1.441,2.188-4.822,3.099-7.395,4.541
			c-0.539-0.52-1.077-1.039-1.615-1.559c1.136-3.131,2.271-6.264,3.406-9.395C1629.271,665.964,1630.242,665.788,1631.212,665.612z"
			/>
		<path fill="#FFFFFF" d="M1378.293,742.161c-1.173-1.025-2.346-2.051-3.52-3.076c0.597-0.606,1.192-1.212,1.788-1.817
			c0.979,1.254,1.956,2.506,2.935,3.759C1379.095,741.404,1378.694,741.782,1378.293,742.161z"/>
		<path fill="#FFFFFF" d="M2131.917,636.525c-0.562,0.271-1.146,0.808-1.682,0.764c-1.109-0.09-2.213-0.438-3.263-0.831
			c-0.113-0.043,0.144-1.074,0.229-1.647c1.089,0.19,2.221,0.259,3.248,0.623c0.509,0.182,0.823,0.907,1.243,1.365
			C2131.709,636.778,2131.917,636.525,2131.917,636.525z"/>
		<path fill="#FFFFFF" d="M857.207,621.992c5.337,0,10.674,0,16.011,0c0.007,0.17,0.013,0.34,0.021,0.51c-5.336,0-10.671,0-16.006,0
			C857.223,622.332,857.215,622.162,857.207,621.992z"/>
		<path fill="#FFFFFF" d="M820.792,703.093c-1.254-2.703-2.509-5.405-3.763-8.107c0.505-0.238,1.011-0.478,1.516-0.714
			c1.287,2.687,2.574,5.373,3.861,8.061C821.868,702.585,821.33,702.839,820.792,703.093z"/>
		<path fill="#FFFFFF" d="M814.314,664.001c0.39,5.092,0.778,10.184,1.169,15.275c-0.748-0.008-1.496-0.015-2.243-0.021
			c0.415-5.002,0.829-10.004,1.213-15.051C814.423,664.159,814.314,664.001,814.314,664.001z"/>
		<path fill="#FFFFFF" d="M920.724,675.337c0,1.908,0,3.817,0,5.726c-0.216,0.021-0.432,0.041-0.646,0.062
			c-0.198-1.865-0.396-3.729-0.594-5.595C919.896,675.466,920.311,675.401,920.724,675.337z"/>
		<path fill="#FFFFFF" d="M855.427,545.886c3.067,6.7,6.256,13.454,9.252,20.292c1.593,3.634,3.198,7.323,4.196,11.146
			c2.757,10.564-0.303,14.895-10.867,16.852c2.137-3.077,5.755-6.259,6.575-10.045c0.811-3.739-1.209-8.092-2.118-12.858
			c-5.562,1.901-6.562,12.066-14.677,5.587C859.636,568.354,851.416,555.177,855.427,545.886z"/>
		<path fill="#FFFFFF" d="M892.801,541.809c7.565-1.644,14.903-0.625,22.719,1.443c-5.997,4.41-10.578,3.968-22.521-1.659
			C892.986,541.606,892.801,541.809,892.801,541.809z"/>
		<path fill="#FFFFFF" d="M803.612,504.214c3.526,2.02,7.056,4.036,11.011,6.299C808.331,513.221,808.331,513.221,803.612,504.214z"
			/>
		<path fill="#FFFFFF" d="M813.007,524.236c3.173,1.573,6.345,3.147,11.234,5.574c-7.548,2.681-9.822-0.613-12.224-3.666
			C812.349,525.509,812.678,524.872,813.007,524.236z"/>
		<path fill="#FFFFFF" d="M832.433,545.724c-4.085,5.742-7.032,3.812-11.059-1.289C826.093,544.985,829.263,545.354,832.433,545.724
			z"/>
		<path fill="#FFFFFF" d="M917.062,572.354c1.617-0.311,3.235-0.62,4.854-0.932c0.106,0.477,0.212,0.951,0.318,1.428
			c-1.598,0.405-3.194,0.812-4.791,1.217C917.316,573.495,917.189,572.924,917.062,572.354z"/>
		<path fill="#FFFFFF" d="M740.697,356.412c1.468,1.822,3.094,2.969,3.105,4.132c0.011,0.953-2.006,2.79-2.935,2.677
			c-1.219-0.148-2.896-1.688-3.152-2.891C737.528,359.447,739.302,358.144,740.697,356.412z"/>
		<path fill="#FFFFFF" d="M1467.015,545.364c2.827,0,5.653,0,8.48,0c0.096,0.489,0.189,0.979,0.286,1.472
			c-2.537,0.831-5.073,1.663-7.948,2.605c-0.226-1.972-0.364-3.181-0.508-4.389C1467.32,545.055,1467.015,545.364,1467.015,545.364z
			"/>
	</g>
</g>
</svg>
